<?xml version="1.0" encoding="UTF-8"?>
<svg version="1.1" xmlns="http://www.w3.org/2000/svg" width="5120" height="5120">
<path d="M0 0 C1689.6 0 3379.2 0 5120 0 C5120 1689.6 5120 3379.2 5120 5120 C3430.4 5120 1740.8 5120 0 5120 C0 3430.4 0 1740.8 0 0 Z " fill="#FEFEFE" transform="translate(0,0)"/>
<path d="M0 0 C3.86926578 0.00852899 7.73850046 -0.00062481 11.60776426 -0.00738057 C18.39852141 -0.01685328 25.18920503 -0.01528678 31.97996189 -0.00635234 C42.1459674 0.00696524 52.31191625 0.00283522 62.47792515 -0.0045842 C79.80766856 -0.01672707 97.13738421 -0.01469292 114.46712793 -0.00487816 C132.02272306 0.00501128 149.57830136 0.00835322 167.13389887 0.00374496 C168.24377531 0.00345793 169.35365176 0.00317089 170.49716082 0.00287515 C175.01770264 0.00168367 179.53824444 0.00044452 184.05878622 -0.00085476 C226.1406786 -0.01294817 268.22255816 -0.01042286 310.30445017 0.00133407 C350.85915937 0.01264752 391.41386286 0.0186218 431.9685737 0.017146 C434.51569143 0.01706059 437.06280915 0.01697571 439.60992687 0.01689136 C449.84577376 0.01654351 460.08162065 0.01615842 470.31746754 0.01572578 C498.93077877 0.01453116 527.54408997 0.01434927 556.15740122 0.0149287 C557.46037642 0.01495473 558.76335162 0.01498075 560.10581092 0.01500757 C601.62336477 0.01590622 643.14091646 0.02119869 684.65846933 0.02963627 C685.66823394 0.02984106 685.66823394 0.02984106 686.69839783 0.03004998 C709.24568699 0.03462597 731.79297608 0.03948519 754.34026518 0.044363 C774.95740598 0.04882102 795.57454681 0.05314364 816.19168772 0.05708397 C817.21434078 0.05727944 817.21434078 0.05727944 818.25765351 0.05747886 C882.99343808 0.06980512 947.72922045 0.06825637 1012.46500576 0.06411232 C1015.89184276 0.06389341 1019.31867975 0.06367728 1022.74551675 0.0634611 C1023.76277316 0.0633969 1023.76277316 0.0633969 1024.80058021 0.06333141 C1026.17021509 0.06324499 1027.53984998 0.06315859 1028.90948486 0.06307221 C1030.27853337 0.06298585 1031.64758188 0.06289942 1033.01663039 0.06281293 C1048.02774287 0.06186467 1063.03885535 0.06094306 1078.04996784 0.06007386 C1080.08930188 0.05995552 1082.12863592 0.05983596 1084.16796997 0.05971633 C1156.82123886 0.05547735 1229.47450685 0.06079899 1302.12777532 0.06946677 C1304.68915734 0.06977006 1307.25053935 0.07007296 1309.81192136 0.07037547 C1311.71116303 0.07059986 1311.71116303 0.07059986 1313.64877322 0.07082878 C1316.20321401 0.0711302 1318.75765479 0.07143119 1321.31209558 0.07173174 C1327.67589509 0.0724806 1334.0396946 0.07323659 1340.40349411 0.07400791 C1368.29903926 0.07735631 1396.19458368 0.07942544 1424.09012903 0.07807219 C1425.97550185 0.07798138 1425.97550185 0.07798138 1427.89896301 0.07788874 C1434.22731737 0.07757677 1440.55567173 0.07724335 1446.88402609 0.07690242 C1492.62128061 0.07445161 1538.35852665 0.07850983 1584.09577884 0.09411242 C1588.60200815 0.09562235 1593.10823747 0.09710239 1597.6144668 0.09855926 C1599.27332113 0.09910037 1599.27332113 0.09910037 1600.96568768 0.09965242 C1618.47366278 0.10518797 1635.9816308 0.10405417 1653.48960608 0.10015443 C1670.70682655 0.09646412 1687.9240333 0.09993599 1705.14125074 0.11101864 C1715.23326803 0.1173051 1725.3252502 0.11817135 1735.41726707 0.11095904 C1742.12551552 0.10671441 1748.83373554 0.10975729 1755.54197938 0.11864367 C1759.3408817 0.12347563 1763.13971342 0.12530541 1766.93861365 0.11812829 C1786.47354167 0.08390419 1805.60725163 0.68626172 1824.87418283 4.19215477 C1825.83155344 4.36464744 1826.78892404 4.53714012 1827.77530588 4.71485985 C1878.12063591 14.04669815 1924.09666057 36.60057932 1961.91715158 71.14527977 C1963.52882746 72.61090553 1965.15610865 74.05959026 1966.79996408 75.48902977 C1977.79707948 85.10054371 1987.22798623 95.98587459 1996.02847971 107.61012352 C1997.34202653 109.33737086 1998.67697235 111.04618931 2000.01480783 112.75465477 C2018.84507542 137.184231 2031.65847328 165.28585053 2041.37418283 194.37965477 C2041.79441721 195.62746727 2042.21465158 196.87527977 2042.64762033 198.16090477 C2044.97710582 205.68980186 2046.47083919 213.40641751 2047.99918283 221.12965477 C2048.2057551 222.16469139 2048.41232736 223.19972801 2048.6251594 224.26612938 C2051.56658764 239.74449876 2052.67308155 255.03883534 2052.62488116 270.76795483 C2052.62686927 272.5582222 2052.62973306 274.34848876 2052.63338005 276.13875351 C2052.64084289 281.03401278 2052.63597624 285.92919177 2052.62900015 290.82444884 C2052.62360648 296.17914009 2052.62990892 301.53382031 2052.63467385 306.88851041 C2052.64144885 316.30126784 2052.64080551 325.7140021 2052.63530676 335.12676002 C2052.62711214 349.21799194 2052.63047639 363.30920511 2052.63607204 377.40043746 C2052.64545933 401.4172308 2052.64498659 425.4340162 2052.63951029 449.45081032 C2052.63399046 473.78965508 2052.6328305 498.1284943 2052.63698496 522.4673394 C2052.63711399 523.23526758 2052.63724301 524.00319577 2052.63737595 524.7943945 C2052.63855904 531.83208835 2052.63978685 538.8697822 2052.64106837 545.90747603 C2052.64427658 563.55446547 2052.64678862 581.20145497 2052.64882912 598.84844458 C2052.64892292 599.6570568 2052.64901672 600.46566902 2052.64911337 601.29878464 C2052.65367014 641.15181312 2052.65059896 681.00484061 2052.64677347 720.85786903 C2052.6466062 722.60348357 2052.64643893 724.34909812 2052.64627168 726.09471266 C2052.64618877 726.95984555 2052.64610586 727.82497844 2052.64602043 728.71632747 C2052.64492739 740.12522219 2052.64385417 751.53411692 2052.64283384 762.94301165 C2052.64275552 763.81510039 2052.6426772 764.68718913 2052.6425965 765.5857048 C2052.63899403 805.99895009 2052.63985098 846.41219487 2052.64169475 886.82544023 C2052.64189435 891.23419831 2052.64208535 895.6429564 2052.6422773 900.05171448 C2052.64285848 913.34021675 2052.64345236 926.62871901 2052.6440725 939.91722128 C2052.64596156 980.43929013 2052.64716204 1020.96135899 2052.64776911 1061.48342789 C2052.64778284 1062.38568113 2052.64779658 1063.28793438 2052.64781073 1064.21752864 C2052.64868821 1122.64932832 2052.64648668 1181.08112743 2052.64206995 1239.51292694 C2052.64199971 1240.44573926 2052.64192948 1241.37855158 2052.64185711 1242.33963094 C2052.63950441 1273.58432462 2052.63699227 1304.82901829 2052.63446385 1336.07371195 C2052.62682275 1430.56171476 2052.62263599 1525.04971558 2052.63469451 1693.7964956 C2052.63722093 1725.03575363 2052.63971795 1756.27501167 2052.64206995 1787.51426971 C2052.64214044 1788.44688972 2052.64221093 1789.37950972 2052.64228355 1790.34039093 C2052.64669401 1848.74341667 2052.64865831 1907.14644202 2052.64776911 1965.54946792 C2052.64775559 1966.45140826 2052.64774208 1967.3533486 2052.64772816 1968.28262046 C2052.64711472 2008.78093507 2052.64583813 2049.27924963 2052.6439481 2089.77756419 C2052.643329 2103.05961273 2052.64274033 2116.34166128 2052.642162 2129.62370982 C2052.64197002 2134.02973015 2052.64177531 2138.43575049 2052.64157429 2142.84177082 C2052.63973601 2183.25616376 2052.63920456 2223.67055604 2052.64283384 2264.0849489 C2052.64291179 2264.95656298 2052.64298973 2265.82817707 2052.64307004 2266.7262037 C2052.64409362 2278.12969771 2052.64517891 2289.53319172 2052.64627168 2300.93668573 C2052.64635451 2301.80121897 2052.64643733 2302.66575222 2052.64652267 2303.55648344 C2052.64668979 2305.30068029 2052.64685705 2307.04487714 2052.64702446 2308.78907399 C2052.65083442 2348.58788679 2052.6534465 2388.3866984 2052.64882912 2428.18551124 C2052.64868905 2429.39669252 2052.64868905 2429.39669252 2052.64854616 2430.63234212 C2052.64648591 2448.2478052 2052.6438468 2465.86326815 2052.64063855 2483.47873106 C2052.63936676 2490.50407812 2052.63816556 2497.52942519 2052.63698496 2504.55477226 C2052.63685413 2505.32111772 2052.63672329 2506.08746319 2052.6365885 2506.87703124 C2052.63247122 2531.18573723 2052.6344769 2555.49443752 2052.6400185 2579.80314309 C2052.64559768 2604.39912814 2052.64426578 2628.99510297 2052.63449479 2653.59108688 C2052.62914732 2667.58683244 2052.62928672 2681.58255221 2052.63745799 2695.57829656 C2052.64233596 2704.86653099 2052.63999688 2714.15474529 2052.63172428 2723.44297728 C2052.62723417 2728.71251699 2052.62585854 2733.98200524 2052.63335731 2739.2515427 C2052.64010931 2744.0375564 2052.6375775 2748.82347417 2052.6278079 2753.60948185 C2052.625905 2755.32111709 2052.62729681 2757.03276026 2052.6325259 2758.74438857 C2052.73082222 2793.3241717 2044.2496873 2826.49039883 2031.37418283 2858.37965477 C2031.0843049 2859.10136864 2030.79442697 2859.8230825 2030.49576486 2860.56666649 C2021.03473272 2883.85748525 2007.32456426 2905.02675252 1991.37418283 2924.37965477 C1990.9320344 2924.92476707 1990.48988596 2925.46987938 1990.03433908 2926.03151024 C1978.03248036 2940.78596916 1964.5412639 2954.86646141 1949.37418283 2966.37965477 C1948.39965158 2967.15953758 1947.42512033 2967.93942039 1946.42105783 2968.74293602 C1919.51409657 2990.18527462 1888.23699975 3005.47270464 1855.37418283 3015.37965477 C1853.89099558 3015.84480492 1853.89099558 3015.84480492 1852.37784494 3016.31935203 C1843.5155726 3018.99902954 1834.67244204 3020.72918417 1825.54141916 3022.1899575 C1823.17738978 3022.56864339 1820.81581566 3022.96046825 1818.45426096 3023.35426414 C1816.91337095 3023.6069844 1815.37235914 3023.8589633 1813.83121408 3024.11012352 C1813.14445093 3024.22365669 1812.45768778 3024.33718986 1811.75011362 3024.45416344 C1801.65488085 3026.05715655 1791.65113252 3026.52612945 1781.43855579 3026.5061546 C1779.53798383 3026.50844442 1779.53798383 3026.50844442 1777.59901648 3026.5107805 C1774.0907113 3026.51486466 1770.58243336 3026.51276702 1767.07412822 3026.50963464 C1763.239832 3026.50732407 1759.40554025 3026.51084301 1755.57124494 3026.51360146 C1748.82810692 3026.51765046 1742.08497662 3026.5179832 1735.34183783 3026.51589551 C1725.24687311 3026.51278725 1715.15191546 3026.51543425 1705.05695126 3026.51919422 C1687.85153928 3026.52543072 1670.64612982 3026.52689992 1653.44071688 3026.52577675 C1636.00228209 3026.5246527 1618.56384944 3026.52568499 1601.12541498 3026.52934921 C1600.02432888 3026.52957886 1598.92324278 3026.52980852 1597.78879043 3026.53004513 C1593.30427033 3026.53098676 1588.81975023 3026.53194245 1584.33523014 3026.53291632 C1537.53710894 3026.54306426 1490.73898894 3026.54612245 1443.94086677 3026.54670843 C1438.90235854 3026.54677318 1433.86385031 3026.54684112 1428.82534207 3026.54691184 C1427.57503133 3026.54692884 1426.32472058 3026.54694585 1425.03652164 3026.54696337 C1397.33493126 3026.54737175 1369.63334111 3026.54956145 1341.93175085 3026.55206768 C1330.52650797 3026.55309604 1319.12126509 3026.55408607 1307.71602221 3026.55508393 C1306.45584507 3026.55519452 1305.19566794 3026.55530511 1303.89730362 3026.55541905 C1232.34851167 3026.56168485 1160.79971981 3026.56587954 1089.25092758 3026.56542325 C1087.22433922 3026.56541049 1085.19775085 3026.56539853 1083.17116248 3026.56538684 C1068.93376804 3026.5653045 1054.69637361 3026.56520179 1040.45897917 3026.56509396 C1036.37686992 3026.56506319 1032.29476067 3026.56503313 1028.21265142 3026.56500314 C1024.80763917 3026.56497805 1021.40262692 3026.56495226 1017.99761466 3026.56492503 C953.6990645 3026.56441372 889.4005156 3026.56582863 825.10196604 3026.57527244 C824.42523482 3026.5753718 823.74850361 3026.57547116 823.05126539 3026.57557353 C801.90735829 3026.57868483 780.76345122 3026.58205133 759.61954416 3026.58546532 C737.92389566 3026.58896684 716.22824716 3026.59243735 694.53259863 3026.59572971 C693.86454493 3026.59583124 693.19649123 3026.59593276 692.50819348 3026.59603737 C650.65518676 3026.60238872 608.80218034 3026.60630451 566.94917311 3026.6075877 C565.00968248 3026.60764762 565.00968248 3026.60764762 563.03101022 3026.60770876 C534.64544066 3026.60856207 506.25987112 3026.60882322 477.87430155 3026.60853839 C467.71707542 3026.6084419 457.55984929 3026.60838986 447.40262316 3026.60835966 C444.87576567 3026.60835174 442.34890819 3026.60834154 439.82205071 3026.60832903 C399.5693796 3026.60815276 359.31671201 3026.61384892 319.06404191 3026.62248285 C278.51428552 3026.63113626 237.964534 3026.6333211 197.41477707 3026.62672153 C191.80784026 3026.62580926 186.20090344 3026.62496598 180.59396662 3026.62416351 C179.49488219 3026.62400342 178.39579777 3026.62384334 177.26340776 3026.6236784 C159.88041161 3026.621328 142.4974239 3026.62567694 125.11442934 3026.6328347 C108.00950781 3026.63973711 90.90459872 3026.63946802 73.79967746 3026.63164256 C63.7800717 3026.62727099 53.76050263 3026.62830926 43.74089993 3026.63750935 C37.07288073 3026.64308001 30.40488871 3026.64129734 23.73687157 3026.63372656 C19.96573361 3026.62964499 16.19466747 3026.62849416 12.4235341 3026.63647725 C-9.99437799 3026.68077039 -32.5955298 3026.41400639 -54.68831717 3022.19215477 C-56.41562063 3021.86960716 -56.41562063 3021.86960716 -58.17781912 3021.54054344 C-84.18044828 3016.49244006 -109.3227625 3007.95926328 -132.69368826 2995.41578758 C-134.03085269 2994.6987133 -135.37267301 2993.99027882 -136.71810232 2993.28883446 C-154.46727766 2984.03012581 -170.67137164 2972.67471664 -185.62581717 2959.37965477 C-186.22225027 2958.86717186 -186.81868338 2958.35468895 -187.43319021 2957.82667625 C-200.29574441 2946.74629278 -212.37326468 2934.66378274 -222.43587576 2920.97096336 C-223.60431314 2919.4084121 -224.82771196 2917.88744722 -226.05159842 2916.36793602 C-255.06304999 2880.23086476 -272.09851308 2834.93996977 -278.62581717 2789.37965477 C-278.79383206 2788.25091716 -278.96184696 2787.12217955 -279.13495321 2785.95923778 C-280.55960483 2775.67108934 -280.90860642 2765.61714982 -280.87766616 2755.24139434 C-280.87977935 2753.45388587 -280.88276788 2751.66637825 -280.88654151 2749.87887251 C-280.8943615 2744.98194326 -280.88982334 2740.08509308 -280.88320569 2735.18816496 C-280.87820095 2729.83512616 -280.88486764 2724.48209931 -280.89000936 2719.12906239 C-280.89744731 2709.71607201 -280.89745569 2700.30310426 -280.89261987 2690.89011252 C-280.88541616 2676.79839571 -280.88974281 2662.70669842 -280.89630122 2648.61498214 C-280.90732738 2624.59790044 -280.90847093 2600.58082601 -280.90460287 2576.56374252 C-280.90071116 2552.22243889 -280.90116362 2527.88114105 -280.90691267 2503.53983772 C-280.90709192 2502.77198497 -280.90727117 2502.00413223 -280.90745586 2501.21301121 C-280.90909873 2494.17604455 -280.91078433 2487.1390779 -280.91252149 2480.10211126 C-280.9168709 2462.45632496 -280.92050634 2444.81053856 -280.92365383 2427.16475201 C-280.92379828 2426.35616587 -280.92394273 2425.54757972 -280.92409156 2424.71449097 C-280.93114187 2384.85688113 -280.93050146 2344.99927182 -280.92897307 2305.14166153 C-280.92892346 2303.84583296 -280.92892346 2303.84583296 -280.92887285 2302.52382603 C-280.92873853 2299.02636715 -280.92860338 2295.52890827 -280.92846747 2292.03144939 C-280.9280923 2282.37019214 -280.92773463 2272.70893489 -280.92739974 2263.04767764 C-280.92736903 2262.17540189 -280.92733831 2261.30312614 -280.92730666 2260.4044178 C-280.92593256 2220.86470209 -280.92846302 2181.324987 -280.93192581 2141.78527146 C-280.93238904 2136.49558029 -280.93284091 2131.20588912 -280.93328993 2125.91619794 C-280.93336421 2125.04178532 -280.93343849 2124.16737269 -280.93351502 2123.26646271 C-280.93366517 2121.49872278 -280.93381529 2119.73098285 -280.93396538 2117.96324292 C-280.93434145 2113.53690745 -280.93471892 2109.11057199 -280.93509647 2104.68423653 C-280.93517127 2103.80661997 -280.93524607 2102.92900341 -280.93532314 2102.02479241 C-280.93570162 2097.58680326 -280.93608154 2093.14881411 -280.93646408 2088.71082497 C-280.94003222 2047.29297575 -280.94289657 2005.8751265 -280.94505678 1964.45727718 C-280.94510402 1963.55484702 -280.94515126 1962.65241687 -280.94519993 1961.72264034 C-280.94819468 1904.21807762 -280.94806965 1846.71351538 -280.94563601 1789.20895264 C-280.94551642 1786.38136372 -280.94539804 1783.5537748 -280.94527992 1780.72618588 C-280.94440849 1759.91258096 -280.9434779 1739.09897604 -280.94252929 1718.28537112 C-280.9424429 1716.38719758 -280.94235653 1714.48902405 -280.94227017 1712.59085051 C-280.94218373 1710.69190102 -280.94209729 1708.79295152 -280.94201084 1706.89400203 C-280.94196805 1705.95374704 -280.94192526 1705.01349205 -280.94188117 1704.04474448 C-280.94166478 1699.29383522 -280.94144734 1694.54292596 -280.94122794 1689.7920167 C-280.93708934 1600.05910277 -280.93601173 1510.32619118 -280.94838797 1420.59327782 C-280.94858339 1419.17620485 -280.94858339 1419.17620485 -280.94878276 1417.73050416 C-280.95273466 1389.16294583 -280.95709423 1360.59538756 -280.96155392 1332.02782931 C-280.96643001 1300.79013132 -280.97126395 1269.55243333 -280.97583567 1238.3147353 C-280.97597244 1237.38214676 -280.97610921 1236.44955821 -280.97625012 1235.48870941 C-280.98480528 1177.07900103 -280.98970854 1118.66929332 -280.99054323 1060.25958431 C-280.9905565 1059.35740634 -280.99056978 1058.45522837 -280.99058345 1057.52571168 C-280.99115879 1017.9035465 -280.99087397 978.28138137 -280.98966474 938.65921622 C-280.98920553 923.6011163 -280.98881329 908.54301639 -280.98845398 893.48491647 C-280.98836971 889.9599137 -280.98828044 886.43491093 -280.98818716 882.90990816 C-280.98713175 842.4905748 -280.98820985 802.07124317 -280.99586211 761.65191043 C-280.99602676 760.78046129 -280.9961914 759.90901216 -280.99636103 759.01115547 C-280.99901926 744.99319185 -281.00183838 730.97522826 -281.00466506 716.95726467 C-281.01268071 677.15678239 -281.01902715 637.35630264 -281.01459621 597.55581952 C-281.01450681 596.74797127 -281.01441741 595.94012302 -281.0143253 595.10779453 C-281.01234163 577.48173248 -281.0095061 559.85567068 -281.00583478 542.22960891 C-281.0043826 535.19949904 -281.00303836 528.16938915 -281.00172697 521.13927925 C-281.00150787 519.98899435 -281.00150787 519.98899435 -281.00128434 518.81547137 C-280.99670523 494.50915365 -281.00131651 470.20284941 -281.01126156 445.8965336 C-281.02128762 421.29263936 -281.020926 396.68876738 -281.00796094 372.08487413 C-281.00090669 358.09184734 -281.00204777 344.09887928 -281.01530932 330.10585667 C-281.02329818 320.81049023 -281.02039115 311.51516821 -281.00865969 302.21980584 C-281.00231465 296.95191501 -281.00054745 291.68414014 -281.01222689 286.4162558 C-281.09527532 246.3052206 -281.09527532 246.3052206 -277.62581717 227.37965477 C-277.41691316 226.16847046 -277.20800916 224.95728615 -276.99277473 223.70939928 C-276.51804448 221.05915118 -275.97362409 218.44208235 -275.37581717 215.81715477 C-275.16674734 214.88282616 -274.95767752 213.94849754 -274.74227224 212.98585594 C-265.0235714 171.07769312 -245.37333047 132.18860372 -217.62581717 99.37965477 C-216.70117506 98.26781108 -215.77670421 97.15582497 -214.85237967 96.04371727 C-204.74556717 83.97229759 -193.99245284 73.14947855 -181.62581717 63.37965477 C-179.89652548 61.92146969 -178.16736142 60.46313323 -176.43831717 59.00465477 C-164.98253804 49.65100296 -152.45958455 41.69401619 -139.62581717 34.37965477 C-138.9969158 34.01662254 -138.36801443 33.65359032 -137.72005545 33.27955711 C-111.62331571 18.34360433 -81.79480014 8.0482801 -52.03023391 3.89431952 C-49.59366107 3.52596915 -47.16479974 3.10510116 -44.74293296 2.64998525 C-29.86855004 -0.04477564 -15.0665848 -0.04646695 0 0 Z " fill="#FEFEFE" transform="translate(2026.6258171666414,759.6203452311456)"/>
<path d="M0 0 C1.35178004 -0.00043724 2.70356 -0.00131496 4.05533952 -0.00258917 C7.73149055 -0.00480406 11.40761193 -0.00085451 15.08375919 0.0041889 C19.06243626 0.00853684 23.04111187 0.00704391 27.01979065 0.00628662 C33.90039778 0.00576412 40.78099538 0.00888219 47.66160011 0.01452446 C57.60960689 0.02267674 67.55760908 0.02525849 77.50561883 0.02651245 C93.64845777 0.02869713 109.79129163 0.03534134 125.93412781 0.04481506 C141.60860672 0.05400432 157.28308425 0.06107774 172.95756531 0.06532288 C173.92492347 0.0655856 174.89228162 0.06584832 175.88895366 0.06611901 C180.74225856 0.06742411 185.59556348 0.06868781 190.44886839 0.06993091 C230.66539396 0.08028532 270.88191387 0.0978877 311.09843445 0.12025452 C311.09866251 0.89981236 311.09889057 1.6793702 311.09912554 2.482551 C311.11850333 68.691701 311.13833391 134.90085085 311.15849304 201.11000061 C311.15889218 202.42102382 311.15929132 203.73204703 311.15970255 205.08279821 C311.18215056 278.7955019 311.20506063 352.50820545 311.29890129 624.19102888 C311.29975963 626.52885815 311.30061755 628.86668743 311.30147533 631.2045167 C311.3257829 697.45116381 311.35047647 763.69781078 311.37568678 829.94445755 C311.3766199 832.39645736 311.37755299 834.84845716 311.37848606 837.30045696 C311.37879424 838.11030944 311.37910243 838.92016193 311.37941995 839.75455539 C311.39100682 870.20561887 311.40250552 900.65668238 311.41395158 931.10774591 C311.41519528 934.41626959 311.41643999 937.72479326 311.41768562 941.03331694 C311.44708196 1019.11551799 311.47489496 1097.19771915 311.49754333 1175.27992249 C311.49778177 1176.10155797 311.4980202 1176.92319346 311.49826586 1177.76972699 C311.50619217 1205.09219803 311.51396448 1232.4146691 311.52171556 1259.73714019 C311.52871949 1284.42429514 311.53577873 1309.11145008 311.54302025 1333.79860497 C311.54325812 1334.60961786 311.54349599 1335.42063076 311.54374108 1336.2562198 C311.5586564 1387.05979948 311.57596818 1437.86337791 311.5956974 1488.66695595 C311.59600187 1489.4517956 311.59630634 1490.23663526 311.59662004 1491.04525793 C311.60999467 1525.51637804 311.62386861 1559.98749792 311.63831321 1594.4586176 C311.64412242 1608.32744264 311.64985771 1622.19626771 311.65555249 1636.06509279 C311.65649734 1638.3646137 311.65744457 1640.6641346 311.65839207 1642.96365551 C311.67286336 1678.12629756 311.6856885 1713.28893922 311.69371748 1748.45158339 C311.69389058 1749.20953921 311.69406367 1749.96749504 311.69424201 1750.74841922 C311.69701628 1762.94074064 311.69965288 1775.13306209 311.70226573 1787.32538355 C311.7096866 1821.9531251 311.71804127 1856.58086504 311.7334578 1891.2086041 C311.73377041 1891.91178973 311.73408301 1892.61497536 311.73440508 1893.33946964 C311.74124618 1908.68388715 311.74863038 1924.02830435 311.75654542 1939.37272134 C311.75969385 1945.4933768 311.76276794 1951.61403229 311.76581764 1957.73468781 C311.76631954 1958.73615957 311.76631954 1958.73615957 311.76683157 1959.75786309 C311.77771514 1981.54801552 311.78188739 2003.33816437 311.78281232 2025.12831947 C311.78383163 2045.89845949 311.79195002 2066.6685867 311.80759037 2087.43872096 C311.81654359 2099.61174007 311.82007736 2111.78473127 311.81551692 2123.95775297 C311.81303052 2132.05187689 311.81781654 2140.14597586 311.82840553 2148.24009316 C311.83419951 2152.82234847 311.83701746 2157.40454623 311.8308257 2161.98680236 C311.79983598 2187.04855595 312.43112653 2211.8704912 316.34843445 2236.68275452 C316.50800125 2237.71036896 316.50800125 2237.71036896 316.67079163 2238.75874329 C318.7500341 2252.06887062 321.54749949 2265.12346248 325.09843445 2278.12025452 C325.3908905 2279.19936096 325.68334656 2280.27846741 325.98466492 2281.39027405 C334.96875547 2314.10682191 347.72451331 2345.92223984 365.09843445 2375.12025452 C365.589245 2375.94831604 366.08005554 2376.77637756 366.58573914 2377.62953186 C379.489691 2399.26073591 394.27881943 2419.36652309 411.09843445 2438.12025452 C411.7208905 2438.82480774 412.34334656 2439.52936096 412.98466492 2440.25526428 C418.4720442 2446.42777079 424.16124138 2452.36933276 429.99980164 2458.20692444 C431.47049855 2459.67981424 432.93296979 2461.16055717 434.39530945 2462.64173889 C440.62807317 2468.91094313 447.17697786 2474.615259 454.09843445 2480.12025452 C455.12600966 2480.98361281 456.14942387 2481.85200374 457.1648407 2482.72962952 C475.48575821 2498.44146488 495.9556998 2511.5374928 517.13017273 2523.04798889 C519.11412472 2524.12880223 521.08850379 2525.22590626 523.0632782 2526.32337952 C591.20096859 2563.75401208 664.47710926 2571.44597434 740.70897095 2571.40079453 C747.68420522 2571.39708958 754.65941502 2571.4053193 761.63464344 2571.41370741 C774.66334421 2571.42904791 787.69203407 2571.43515019 800.72074318 2571.43604088 C813.90328382 2571.4369808 827.08581214 2571.44230689 840.26834869 2571.45287132 C841.10424716 2571.45353865 841.94014563 2571.45420597 842.80137435 2571.45489352 C847.064416 2571.45831675 851.32745759 2571.46181028 855.59049916 2571.46532862 C886.36342528 2571.49058251 917.13635025 2571.50631114 947.90928459 2571.51691055 C978.36512559 2571.52742895 1008.82096011 2571.54207176 1039.27679634 2571.56219101 C1040.22418221 2571.56281499 1041.17156807 2571.56343898 1042.1476626 2571.56408187 C1050.80113434 2571.56978354 1059.45460604 2571.57553569 1068.10807771 2571.5813484 C1089.61539436 2571.59579465 1111.12271139 2571.60960818 1132.63002872 2571.62299156 C1133.60920263 2571.62360138 1134.58837654 2571.6242112 1135.59722239 2571.6248395 C1183.17713248 2571.65441657 1230.7570456 2571.67670178 1278.33695984 2571.69837952 C1294.83911645 2571.70590208 1311.34127304 2571.71345696 1327.84342957 2571.72114563 C1328.86695662 2571.72162248 1329.89048368 2571.72209933 1330.9450267 2571.72259063 C1378.56579791 2571.74482088 1426.18656571 2571.77224613 1473.80733337 2571.80100335 C1476.90059751 2571.80287121 1479.99386165 2571.80473684 1483.08712579 2571.80660202 C1503.58711212 2571.81896666 1524.0870984 2571.83142067 1544.58708464 2571.8439345 C1585.37363676 2571.86883109 1626.16018919 2571.89320279 1666.94674184 2571.91721363 C1668.8889092 2571.91835698 1670.83107655 2571.9195007 1672.77324391 2571.92064478 C1760.15564543 2571.97211661 1847.53804973 2572.01748372 1934.92045593 2572.06019592 C1935.73831453 2572.06059573 1936.55617313 2572.06099553 1937.39881532 2572.06140745 C1978.29868819 2572.0813964 2019.19856121 2572.10103646 2060.09843445 2572.12025452 C2060.14526916 2598.40766957 2060.18047932 2624.69507832 2060.20205879 2650.98252678 C2060.21234727 2663.18974583 2060.22636093 2675.39693888 2060.24931335 2687.60414124 C2060.26932184 2698.2507406 2060.28216851 2708.89732111 2060.28661144 2719.54393876 C2060.28920624 2725.17503133 2060.29525394 2730.80607002 2060.30989456 2736.43714523 C2060.32359664 2741.7509239 2060.32763191 2747.06462712 2060.32464981 2752.37842178 C2060.32519438 2754.31560935 2060.32909588 2756.25279978 2060.3368454 2758.18997192 C2060.39784905 2774.24379604 2059.32780867 2789.93995398 2055.97343445 2805.68275452 C2055.76098083 2806.68250305 2055.54852722 2807.68225159 2055.32963562 2808.71229553 C2045.04699945 2855.01842173 2023.30600511 2898.93959365 1991.1414032 2933.89369202 C1989.26884137 2935.93453378 1987.46013911 2938.01489149 1985.66093445 2940.12025452 C1978.17924313 2948.66830184 1969.98095882 2956.06682139 1961.09843445 2963.12025452 C1959.92911672 2964.07824574 1958.76121545 2965.03796776 1957.5945282 2965.99916077 C1943.6767475 2977.4081412 1928.9877314 2986.69501906 1913.09843445 2995.12025452 C1912.41635925 2995.48393127 1911.73428406 2995.84760803 1911.03153992 2996.2223053 C1901.3955365 3001.32150418 1891.54780686 3005.53439149 1881.32011414 3009.29994202 C1879.18046826 3010.08996511 1877.04963114 3010.90070531 1874.91874695 3011.71400452 C1843.89509583 3023.35384613 1810.70195521 3026.9237121 1777.78922793 3026.7547266 C1773.9035854 3026.74059514 1770.01802264 3026.75632732 1766.13238665 3026.76778087 C1759.33293456 3026.78390533 1752.53368582 3026.78191434 1745.73423288 3026.76738555 C1735.55529638 3026.74573176 1725.37651742 3026.75342221 1715.19757351 3026.76638269 C1697.84040752 3026.78764545 1680.48331728 3026.78543713 1663.12614822 3026.7701149 C1645.55503264 3026.75469122 1627.98396445 3026.75024046 1610.4128437 3026.75896645 C1608.74348728 3026.75978452 1608.74348728 3026.75978452 1607.04040648 3026.76061912 C1602.50716988 3026.7628773 1597.97393333 3026.76521389 1593.44069683 3026.76764958 C1551.28983801 3026.79028795 1509.1390135 3026.7885343 1466.98815346 3026.77116585 C1426.37440913 3026.75445034 1385.76068043 3026.74636975 1345.1469326 3026.75039482 C1342.59378133 3026.75063518 1340.04063005 3026.75087437 1337.48747877 3026.7511124 C1327.2268497 3026.75208122 1316.96622063 3026.75310365 1306.70559156 3026.7541975 C1278.02512356 3026.75722578 1249.3446556 3026.75854923 1220.66418743 3026.75856686 C1219.35827626 3026.75856812 1218.05236509 3026.75856939 1216.70688085 3026.75857069 C1175.11046889 3026.75849061 1133.5140628 3026.75095063 1091.91765308 3026.73816013 C1091.2434269 3026.73795337 1090.56920071 3026.73774661 1089.87454342 3026.73753358 C1067.29351078 3026.73060539 1044.71247828 3026.7232338 1022.13144578 3026.7158273 C953.8488646 3026.69344344 885.56629666 3026.67856507 763.61473221 3026.69630864 C757.43857504 3026.69739364 751.26241788 3026.69846746 745.08626071 3026.69954325 C744.40754889 3026.69966152 743.72883707 3026.6997798 743.02955822 3026.69990167 C727.99331018 3026.70252062 712.95706213 3026.70507432 697.92081406 3026.7075097 C696.5587175 3026.70773048 695.19662095 3026.70795194 693.83452439 3026.70817408 C621.63200283 3026.71994538 549.42948422 3026.71390912 477.2269629 3026.7006667 C466.9765808 3026.69878842 456.72619868 3026.69696197 446.47581657 3026.69514116 C442.65302871 3026.69445691 438.83024086 3026.69375538 435.00745301 3026.69305365 C407.06493159 3026.68800205 379.12241343 3026.6856709 351.17989182 3026.6904881 C349.92179924 3026.69070478 348.66370666 3026.69092146 347.36749005 3026.6911447 C341.03362171 3026.69225348 334.69975338 3026.69341246 328.36588505 3026.69459311 C282.55763114 3026.70312679 236.74940967 3026.69890256 190.94116191 3026.67182601 C186.42404864 3026.66921148 181.90693534 3026.66665802 177.38982201 3026.66415215 C176.28127808 3026.66353099 175.17273416 3026.66290984 174.03059799 3026.66226986 C156.50893561 3026.65280489 138.98730291 3026.65665794 121.46564159 3026.66609499 C104.21859124 3026.67509594 86.97159424 3026.66970089 69.72455321 3026.6492026 C59.62630478 3026.63761925 49.52819796 3026.6367616 39.42995391 3026.6522254 C32.70496146 3026.66141534 25.98008053 3026.65585322 19.25510379 3026.63880706 C15.45484149 3026.62957063 11.65486063 3026.62608378 7.85460968 3026.64095547 C-62.93783389 3026.89773528 -131.19594961 3003.43960669 -183.2414093 2954.59291077 C-185.39508549 2952.59103554 -187.58137539 2950.68837743 -189.83906555 2948.80775452 C-209.83432651 2931.38449808 -225.91438597 2908.05480935 -238.90156555 2885.12025452 C-239.26314758 2884.49280334 -239.62472961 2883.86535217 -239.99726868 2883.21888733 C-250.58446375 2864.72397247 -258.0280052 2844.56138412 -263.90156555 2824.12025452 C-264.09444153 2823.45880432 -264.2873175 2822.79735413 -264.48603821 2822.11585999 C-270.70595786 2800.60372287 -273.22065355 2779.05113194 -273.15226388 2756.72784376 C-273.15425198 2754.93712593 -273.15711577 2753.14640889 -273.16076277 2751.35569367 C-273.16822564 2746.45917955 -273.16335894 2741.56274568 -273.15638287 2736.66623377 C-273.15098922 2731.31017431 -273.15729163 2725.95412588 -273.16205657 2720.59806758 C-273.16883158 2711.18288816 -273.16818822 2701.76773191 -273.16268948 2692.352552 C-273.15449485 2678.25766461 -273.15785911 2664.16279596 -273.16345476 2650.06790814 C-273.17284207 2626.04481639 -273.1723693 2602.02173258 -273.16689301 2577.99864006 C-273.16137317 2553.65334338 -273.16021322 2529.30805222 -273.16436768 2504.9627552 C-273.1644967 2504.19462276 -273.16462573 2503.42649031 -273.16475867 2502.63508113 C-273.16594176 2495.59551045 -273.16716957 2488.55593978 -273.16845109 2481.51636912 C-273.1716593 2463.86462427 -273.17417134 2446.21287936 -273.17621183 2428.56113434 C-273.17630564 2427.75230245 -273.17639944 2426.94347055 -273.17649608 2426.1101286 C-273.18105288 2386.246077 -273.17798165 2346.38202639 -273.17415619 2306.51797485 C-273.17398892 2304.77186684 -273.17382165 2303.02575883 -273.1736544 2301.27965082 C-273.17357149 2300.41427299 -273.17348858 2299.54889517 -273.17340315 2298.65729378 C-273.17231011 2287.24513975 -273.17123689 2275.83298572 -273.17021656 2264.42083168 C-273.17013824 2263.54849144 -273.17005992 2262.67615119 -273.16997922 2261.77737639 C-273.1663767 2221.35191468 -273.16723372 2180.92645347 -273.16907747 2140.50099168 C-273.16927707 2136.09085057 -273.16946806 2131.68070945 -273.16966002 2127.27056834 C-273.1702412 2113.97786437 -273.17083508 2100.6851604 -273.17145522 2087.39245644 C-273.17334428 2046.85741451 -273.17454476 2006.32237259 -273.17515182 1965.78733063 C-273.17516556 1964.88478623 -273.1751793 1963.98224183 -273.17519345 1963.0523476 C-273.17607093 1904.60138324 -273.17386939 1846.15041944 -273.16945267 1787.69945526 C-273.16938243 1786.76633474 -273.16931219 1785.83321422 -273.16923983 1784.87181732 C-273.16688713 1753.61686026 -273.16437499 1722.36190321 -273.16184657 1691.10694616 C-273.15420573 1596.59112172 -273.15001843 1502.07529927 -273.16207723 1333.28224215 C-273.16460365 1302.03517936 -273.16710068 1270.78811657 -273.16945267 1239.54105377 C-273.16952316 1238.6081959 -273.16959365 1237.67533802 -273.16966627 1236.71421172 C-273.17407691 1178.29386721 -273.17604099 1119.87352308 -273.17515182 1061.45317841 C-273.17513831 1060.5509336 -273.1751248 1059.64868879 -273.17511088 1058.71910323 C-273.17449743 1018.20656697 -273.17322083 977.69403075 -273.17133082 937.18149454 C-273.17071172 923.89465405 -273.17012305 910.60781356 -273.16954472 897.32097308 C-273.16935274 892.91337567 -273.16915803 888.50577826 -273.168957 884.09818085 C-273.16711885 843.67201277 -273.16658695 803.24584535 -273.17021656 762.81967735 C-273.1702945 761.94789017 -273.17037245 761.076103 -273.17045275 760.17789802 C-273.17147634 748.77221808 -273.17256162 737.36653815 -273.1736544 725.96085822 C-273.17373722 725.09616331 -273.17382005 724.23146841 -273.17390539 723.34057062 C-273.17407251 721.59604842 -273.17423977 719.85152622 -273.17440718 718.10700401 C-273.17821743 678.29779386 -273.18082863 638.48858489 -273.17621183 598.67937469 C-273.17611846 597.8716079 -273.17602508 597.06384111 -273.17592888 596.23159653 C-273.17386857 578.60875333 -273.17122942 560.98591027 -273.16802127 543.36306725 C-273.16674949 536.33462945 -273.16554828 529.30619164 -273.16436768 522.27775383 C-273.16423684 521.51107377 -273.16410601 520.74439371 -273.16397122 519.95448092 C-273.15985483 495.64047574 -273.16185861 471.32647626 -273.16740122 447.0124715 C-273.17298207 422.40819937 -273.17164537 397.80393746 -273.16187751 373.19966648 C-273.15653246 359.20127874 -273.15666524 345.20291678 -273.16484071 331.20453026 C-273.16972224 321.91199963 -273.16737396 312.61948912 -273.159107 303.32696093 C-273.15462117 298.0566145 -273.15323137 292.78631948 -273.16074003 287.51597533 C-273.16750415 282.72689267 -273.16494413 277.93790574 -273.15519062 273.14882905 C-273.15329157 271.43832657 -273.15466835 269.72781612 -273.15990862 268.01732061 C-273.20637904 251.71164419 -271.60161595 235.89058075 -268.21406555 219.93275452 C-267.9527887 218.69589905 -267.69151184 217.45904358 -267.4223175 216.18470764 C-261.95709553 191.05858805 -252.91369446 167.81368879 -240.90156555 145.12025452 C-240.56189758 144.47282288 -240.22222961 143.82539124 -239.87226868 143.15834045 C-223.08033503 111.40376203 -197.64597734 80.68881457 -168.90156555 59.12025452 C-168.3709552 58.71323303 -167.84034485 58.30621155 -167.2936554 57.88685608 C-119.20740894 21.03571394 -60.77350438 -0.14430981 0 0 Z " fill="#FEFEFE" transform="translate(1313.9015655517578,1333.8797454833984)"/>
<path d="M0 0 C3.87541095 0.00467342 7.75080541 -0.00244107 11.62621286 -0.00793364 C18.4232334 -0.01598539 25.22022331 -0.01671807 32.01724687 -0.01252175 C42.19292375 -0.00627418 52.36857282 -0.01162285 62.54424769 -0.01911917 C79.89241884 -0.03155812 97.24058 -0.03453562 114.58875494 -0.03228422 C132.16084517 -0.03003252 149.73292692 -0.03211322 167.30501585 -0.03942915 C168.97213325 -0.04011811 168.97213325 -0.04011811 170.67292978 -0.04082099 C175.19985149 -0.04270435 179.72677318 -0.04461573 184.25369485 -0.04656337 C231.44074402 -0.06683499 278.62778845 -0.07297473 325.81484148 -0.07414759 C330.89167372 -0.07427709 335.96850596 -0.07441297 341.04533821 -0.07455441 C342.93517429 -0.07460542 342.93517429 -0.07460542 344.86318887 -0.07465746 C372.80357393 -0.07547497 400.74395809 -0.07985677 428.68434268 -0.0848661 C440.19561039 -0.08692288 451.70687812 -0.08890296 463.21814584 -0.0908986 C464.49011875 -0.09111977 465.76209166 -0.09134095 467.07260921 -0.09156883 C539.2698472 -0.10409662 611.46708462 -0.11249023 683.66432367 -0.11157723 C685.70832386 -0.11155172 687.75232404 -0.11152779 689.79632422 -0.1115044 C704.15530102 -0.11133973 718.51427782 -0.11113432 732.87325462 -0.11091865 C736.99002939 -0.11085711 741.10680416 -0.11079698 745.22357893 -0.11073702 C748.65750147 -0.11068683 752.09142402 -0.11063525 755.52534656 -0.11058079 C820.36203054 -0.10955829 885.19870954 -0.11238577 950.03539114 -0.13127562 C950.71770803 -0.13147433 951.40002492 -0.13167305 952.10301807 -0.13187779 C973.42172344 -0.13810045 994.74042864 -0.14483345 1016.05913382 -0.15166136 C1037.93521365 -0.15866472 1059.81129349 -0.16560591 1081.68737345 -0.17219015 C1082.36103249 -0.1723932 1083.03469153 -0.17259626 1083.72876447 -0.17280546 C1125.95115762 -0.1855136 1168.1735488 -0.19334079 1210.39594393 -0.19590613 C1211.70087843 -0.19598603 1213.00581293 -0.19606593 1214.35029089 -0.19614825 C1243.00174919 -0.19785509 1271.6532074 -0.1983771 1300.30466574 -0.1978075 C1310.55770223 -0.19761454 1320.81073872 -0.19751045 1331.06377522 -0.19745004 C1333.61434465 -0.19743421 1336.16491408 -0.1974138 1338.71548351 -0.19738879 C1379.29818866 -0.19703665 1419.88087981 -0.20841187 1460.46358095 -0.22569642 C1501.35937221 -0.24302572 1542.25514412 -0.2473537 1583.15093751 -0.23417378 C1588.81342796 -0.23234942 1594.47591844 -0.23066281 1600.13840895 -0.22905775 C1601.2483147 -0.22873758 1602.35822046 -0.2284174 1603.50175972 -0.22808753 C1621.01155146 -0.22339821 1638.52130953 -0.23205788 1656.03109494 -0.24640013 C1673.28697349 -0.2602509 1690.54280277 -0.25961413 1707.7986803 -0.24401585 C1717.01319959 -0.23607103 1726.22761027 -0.23421753 1735.44212082 -0.25093056 C1825.96848633 -0.40675663 1825.96848633 -0.40675663 1862.54765921 8.6618152 C1864.92319912 9.24839783 1867.30450124 9.79382294 1869.69267874 10.32636598 C1900.78076058 17.30373251 1930.70753206 28.51384561 1958.95830374 43.21943239 C1961.120326 44.33770167 1963.29456542 45.42979479 1965.47002249 46.52167848 C1986.75110091 57.31885843 2007.23658821 70.82945878 2025.51299124 86.20136598 C2027.87286158 88.17855465 2030.28584819 90.06306621 2032.72002249 91.94745973 C2043.84661732 100.86266561 2053.88326105 111.08516225 2063.97002249 121.13495973 C2065.29610526 122.45403322 2065.29610526 122.45403322 2066.64897757 123.79975466 C2119.95078887 177.23316287 2155.00745282 250.3171898 2168.65752249 324.00995973 C2168.84798148 325.01792604 2169.03844046 326.02589235 2169.23467093 327.06440309 C2169.88962217 330.78636641 2170.43973869 334.51868998 2170.97002249 338.25995973 C2171.15322 339.53832759 2171.15322 339.53832759 2171.34011847 340.84252105 C2174.33520669 362.59003486 2174.39731252 384.15906961 2174.34710605 406.06808108 C2174.33819118 411.44543718 2174.34697429 416.82277213 2174.35335665 422.20012788 C2174.36217315 431.63728213 2174.35994782 441.07438266 2174.35035082 450.51153541 C2174.33604296 464.63912454 2174.33920593 478.76667399 2174.34566661 492.89426699 C2174.35645917 516.97690947 2174.35254154 541.05953213 2174.34109717 565.14217333 C2174.32955159 589.5380961 2174.3245972 613.93400727 2174.32763892 638.32993273 C2174.32777856 639.48569586 2174.32777856 639.48569586 2174.32792102 640.66480775 C2174.32877611 647.72641667 2174.32970225 654.78802558 2174.33071324 661.84963448 C2174.33324305 679.55434498 2174.33476449 697.25905548 2174.33561116 714.96376614 C2174.33567027 716.18047991 2174.33567027 716.18047991 2174.33573057 717.42177376 C2174.33757951 757.37353155 2174.3281137 797.32528577 2174.31777792 837.27704195 C2174.31414724 851.33559086 2174.31055411 865.39413977 2174.30713587 879.45268873 C2174.30692318 880.32668351 2174.30671048 881.2006783 2174.30649134 882.10115777 C2174.29668758 922.62213561 2174.29426021 963.14311285 2174.29363439 1003.66409175 C2174.29359272 1006.31574657 2174.29354715 1008.96740139 2174.29350034 1011.61905621 C2174.29321944 1027.60929525 2174.29300087 1043.59953429 2174.29285947 1059.58977332 C2174.29250116 1099.33944574 2174.2911523 1139.08911809 2174.28909522 1178.83879045 C2174.28904882 1179.74364261 2174.28900242 1180.64849477 2174.28895461 1181.58076669 C2174.28593916 1240.16843094 2174.27874542 1298.75609382 2174.26822882 1357.34375719 C2174.26806113 1358.27887095 2174.26789343 1359.21398471 2174.26772065 1360.17743525 C2174.26226855 1390.54592616 2174.25651119 1420.91441701 2174.25072848 1451.28290785 C2174.24509455 1480.87588508 2174.23954812 1510.46886232 2174.23430472 1540.06183962 C2174.23413681 1541.00895961 2174.23396891 1541.9560796 2174.23379591 1542.93190019 C2174.21788038 1632.88796039 2174.21294064 1722.84402026 2174.21033986 1812.80008169 C2174.21020157 1817.56270173 2174.21006011 1822.32532177 2174.20991894 1827.08794181 C2174.20952521 1840.39672199 2174.20913828 1853.70550217 2174.20875181 1867.01428235 C2174.20869671 1868.91147899 2174.20864162 1870.80867564 2174.20858651 1872.70587228 C2174.20855926 1873.6445803 2174.208532 1874.58328832 2174.20850391 1875.55044204 C2174.2082838 1883.12563121 2174.2080619 1890.70082038 2174.20783922 1898.27600954 C2174.20770052 1903.00097758 2174.20756307 1907.72594561 2174.20742825 1912.45091364 C2174.20578314 1970.07482478 2174.20282717 2027.69873568 2174.19812232 2085.32264666 C2174.19804848 2086.2271159 2174.19797464 2087.13158515 2174.19789857 2088.06346255 C2174.19442942 2130.45562062 2174.1904602 2172.84777864 2174.18612199 2215.23993663 C2174.18598678 2216.5614534 2174.18598678 2216.5614534 2174.18584883 2217.90966748 C2174.18403514 2235.62123239 2174.18219722 2253.3327973 2174.18030535 2271.04436221 C2174.17635521 2308.03932268 2174.17274928 2345.03428311 2174.17038098 2382.02924372 C2174.17009821 2386.44080394 2174.16981139 2390.85236417 2174.16952479 2395.2639244 C2174.16946816 2396.13610705 2174.16941153 2397.0082897 2174.16935319 2397.90690214 C2174.16487613 2466.81712714 2174.15774348 2535.7273502 2174.14258228 2604.63757379 C2174.14120621 2610.90313933 2174.13985237 2617.16870488 2174.1385102 2623.43427043 C2174.13817726 2624.98781715 2174.13784318 2626.54136387 2174.13750796 2628.0949106 C2174.13226269 2652.46481935 2174.13004039 2676.83472709 2174.12955853 2701.20463636 C2174.12905465 2725.86215567 2174.12506611 2750.51967194 2174.11682681 2775.17718992 C2174.11224154 2789.20777475 2174.11037714 2803.2383536 2174.11250122 2817.26893906 C2174.11363722 2826.58014991 2174.11116764 2835.89135526 2174.10573252 2845.20256459 C2174.10274956 2850.48513433 2174.10131896 2855.76769154 2174.10431372 2861.05026156 C2174.10700375 2865.84803569 2174.10506177 2870.64578534 2174.09950757 2875.44355681 C2174.09831472 2877.15944757 2174.09876556 2878.87534053 2174.10113032 2880.59123008 C2174.1210876 2896.27667349 2173.2624046 2911.65460121 2171.03252249 2927.19745973 C2170.77825491 2929.05080934 2170.77825491 2929.05080934 2170.51885062 2930.94160036 C2169.6028869 2937.46479446 2168.49537048 2943.85465322 2166.97002249 2950.25995973 C2166.59620614 2951.96900191 2166.22525854 2953.67867335 2165.85674124 2955.38886598 C2163.58945275 2965.73360631 2161.14688102 2975.90713529 2157.74931937 2985.94453005 C2157.18434379 2987.62317301 2156.62967983 2989.30529792 2156.08135062 2990.98945192 C2133.95346835 3058.95366175 2094.0239585 3122.95766605 2038.97002249 3169.25995973 C2038.07670218 3170.04242067 2037.18338187 3170.82488161 2036.26299124 3171.63105348 C2016.00402661 3189.27701444 1993.455009 3204.28105766 1969.97002249 3217.25995973 C1969.10844534 3217.73932985 1968.2468682 3218.21869997 1967.35918265 3218.71259645 C1932.09624981 3238.18328193 1894.28716135 3251.03905135 1854.97002249 3259.25995973 C1854.02014456 3259.46153688 1853.07026663 3259.66311403 1852.09160452 3259.87079958 C1839.76622265 3262.43288023 1827.37314354 3263.82855557 1814.83936148 3264.85195497 C1814.03493927 3264.91789291 1813.23051705 3264.98383084 1812.40171841 3265.05176689 C1795.98579946 3266.36986673 1779.65988782 3266.67821217 1763.19912284 3266.6081566 C1759.23723033 3266.59481795 1755.27534554 3266.59961142 1751.3134368 3266.60186342 C1744.49869955 3266.60341308 1737.68405052 3266.5942512 1730.86933547 3266.57714991 C1721.0172286 3266.5524429 1711.16516302 3266.54492286 1701.31302854 3266.54118593 C1685.31658913 3266.53467018 1669.32019641 3266.51484383 1653.32378226 3266.48627809 C1637.81336792 3266.45860957 1622.3029664 3266.43743922 1606.79253226 3266.42475466 C1605.83147946 3266.42396649 1604.87042667 3266.42317832 1603.88025106 3266.42236626 C1599.05744146 3266.41845027 1594.23463177 3266.41465936 1589.41182201 3266.41093055 C1549.5978562 3266.37998706 1509.78394247 3266.32728714 1469.97002249 3266.25995973 C1469.97417056 3267.73229366 1469.97417056 3267.73229366 1469.97840243 3269.2343717 C1470.0453899 3293.26271465 1470.09448245 3317.29104531 1470.12545901 3341.31946234 C1470.1408422 3352.94004303 1470.16176539 3364.56056156 1470.19634085 3376.18110231 C1470.22650798 3386.32498775 1470.24565934 3396.46882812 1470.25228798 3406.61275718 C1470.25615465 3411.9698707 1470.26505671 3417.32685542 1470.28721266 3422.6839271 C1470.38141794 3446.40362063 1470.00489171 3469.70883533 1466.97002249 3493.25995973 C1466.8156239 3494.46664371 1466.6612253 3495.67332769 1466.50214797 3496.91657785 C1463.43497164 3520.53247132 1458.76762701 3543.73446889 1450.97002249 3566.25995973 C1450.44432669 3567.81553591 1450.44432669 3567.81553591 1449.90801077 3569.40253786 C1439.26370399 3600.83502702 1425.45945896 3631.59970902 1406.97002249 3659.25995973 C1406.46470999 3660.02002321 1405.95939749 3660.78008669 1405.43877249 3661.56318239 C1395.17417551 3676.9446563 1384.16638902 3691.36611701 1371.97002249 3705.25995973 C1371.16306937 3706.18035036 1370.35611624 3707.10074098 1369.52470999 3708.04902223 C1364.5377846 3713.6614853 1359.32152697 3718.99634493 1353.97002249 3724.25995973 C1351.37580844 3726.84158051 1348.79826547 3729.43614602 1346.24345999 3732.05683473 C1339.82740184 3738.61748322 1333.18369653 3744.57097241 1325.97002249 3750.25995973 C1324.82656491 3751.19167832 1323.68471949 3752.12537789 1322.54424124 3753.06074098 C1250.99699035 3811.50873646 1160.90592504 3840.9253626 1069.03018591 3840.6396145 C1065.14551553 3840.6310046 1061.26087389 3840.64026405 1057.37620532 3840.64699508 C1050.57381652 3840.65642266 1043.77150132 3840.65493886 1036.96911291 3840.64596684 C1026.7857314 3840.63259358 1016.60240609 3840.63679869 1006.41902114 3840.6441987 C989.05548366 3840.65631385 971.69197395 3840.65432592 954.32843619 3840.64449266 C936.74800866 3840.63459 919.16759795 3840.63126784 901.58716803 3840.63586954 C899.91763928 3840.6363001 899.91763928 3840.6363001 898.21438267 3840.63673935 C893.68076152 3840.63793088 889.14714039 3840.63917004 884.61351927 3840.64046926 C842.44760884 3840.65255128 800.28171121 3840.65004668 758.11580115 3840.63828043 C717.48562452 3840.62695963 676.8554536 3840.62099375 636.22527533 3840.62246851 C633.67162257 3840.62255391 631.11796981 3840.62263879 628.56431705 3840.62272315 C618.30179155 3840.623071 608.03926605 3840.62345609 597.77674056 3840.62388872 C569.09045642 3840.62508324 540.40417232 3840.62526528 511.71788817 3840.6246858 C510.41168312 3840.62465978 509.10547807 3840.62463375 507.75969104 3840.62460694 C466.15046332 3840.62370853 424.54123773 3840.618418 382.93201094 3840.60997824 C382.25752355 3840.60984171 381.58303615 3840.60970519 380.88810974 3840.60956452 C358.29800864 3840.60498875 335.70790761 3840.60012942 313.11780658 3840.5952515 C292.46214063 3840.59079352 271.80647467 3840.5864709 251.15080862 3840.58253054 C250.46777354 3840.58240022 249.78473845 3840.58226991 249.08100532 3840.58213564 C184.22099053 3840.56980862 119.36097794 3840.57135842 54.5009624 3840.57550218 C51.0673241 3840.57572109 47.63368579 3840.57593723 44.20004749 3840.57615341 C43.18077192 3840.5762176 43.18077192 3840.5762176 42.14090492 3840.57628309 C40.7685495 3840.57636951 39.39619409 3840.57645591 38.02383867 3840.57654229 C36.652067 3840.57662866 35.28029532 3840.57671509 33.90852365 3840.57680158 C18.86710276 3840.57774986 3.82568186 3840.57867147 -11.21573903 3840.57954064 C-13.25926153 3840.57965899 -15.30278402 3840.57977854 -17.34630651 3840.57989817 C-90.17199402 3840.58413848 -162.99768056 3840.57881384 -235.82336766 3840.57014773 C-238.39128346 3840.56984445 -240.95919925 3840.56954155 -243.52711505 3840.56923903 C-245.4311801 3840.56901465 -245.4311801 3840.56901465 -247.37371112 3840.56878572 C-249.93460738 3840.5684843 -252.49550365 3840.56818332 -255.05639991 3840.56788276 C-261.43614605 3840.56713391 -267.81589218 3840.56637792 -274.19563831 3840.56560659 C-302.14793015 3840.5622597 -330.10022127 3840.56018828 -358.05251331 3840.56154231 C-359.31124003 3840.56160285 -360.56996675 3840.56166339 -361.86683671 3840.56172576 C-368.20398535 3840.56203772 -374.54113398 3840.56237115 -380.87828262 3840.56271209 C-426.70409641 3840.56516433 -472.52990174 3840.56109299 -518.35571321 3840.54550208 C-522.87378386 3840.5439922 -527.39185451 3840.54251216 -531.90992517 3840.54105524 C-533.01871031 3840.5406945 -534.12749545 3840.54033376 -535.26988015 3840.53996209 C-552.80102556 3840.53443337 -570.33216389 3840.53555666 -587.86330947 3840.53946008 C-605.11639517 3840.54315655 -622.3694672 3840.53965969 -639.62254987 3840.52859586 C-649.72658852 3840.52232513 -659.83059211 3840.52142248 -669.93463032 3840.52865546 C-676.6609316 3840.53291726 -683.38720465 3840.52982409 -690.11350136 3840.52097083 C-693.91609729 3840.51616412 -697.71862306 3840.51425594 -701.52121678 3840.52148621 C-725.15527393 3840.56311636 -748.92652798 3840.1209869 -772.27997751 3836.13495973 C-773.54897897 3835.92250612 -774.81798044 3835.71005251 -776.12543649 3835.49116091 C-858.91259915 3821.21579861 -932.48182754 3780.51447826 -991.82004709 3721.64512209 C-993.23622848 3720.24084113 -994.65635759 3718.84054482 -996.07660837 3717.44037966 C-1002.16635761 3711.35828566 -1007.66695846 3704.98554552 -1013.02997751 3698.25995973 C-1013.89348784 3697.23251229 -1014.76188177 3696.2091043 -1015.63935251 3695.19355348 C-1034.06949457 3673.70293162 -1049.06128808 3649.35660975 -1062.02997751 3624.25995973 C-1062.48437204 3623.38919802 -1062.93876657 3622.5184363 -1063.40693063 3621.62128786 C-1075.81352921 3597.61139565 -1085.48885136 3571.48240167 -1092.02997751 3545.25995973 C-1092.21318552 3544.54356325 -1092.39639352 3543.82716677 -1092.58515329 3543.0890613 C-1096.57298527 3527.40334954 -1099.57648696 3511.48683554 -1101.71747751 3495.44745973 C-1101.83679636 3494.56622438 -1101.9561152 3493.68498903 -1102.07904977 3492.77704958 C-1103.87979706 3478.58200479 -1104.1775686 3464.39527408 -1104.15992934 3450.11035118 C-1104.161427 3448.32159504 -1104.1633604 3446.53283921 -1104.16568462 3444.74408395 C-1104.170797 3439.84368584 -1104.16975278 3434.94330581 -1104.167671 3430.0429062 C-1104.16650423 3424.68604221 -1104.17114708 3419.32918261 -1104.17502774 3413.97232033 C-1104.18105052 3404.55249973 -1104.18336391 3395.13268385 -1104.18325459 3385.7128614 C-1104.18310383 3371.61064745 -1104.18866004 3357.50843966 -1104.1953015 3343.40622748 C-1104.20653939 3319.37062517 -1104.21278482 3295.33502351 -1104.21647424 3271.29941896 C-1104.22022316 3246.93875039 -1104.22609951 3222.57808374 -1104.23455209 3198.21741632 C-1104.23508873 3196.66360842 -1104.23562519 3195.10980053 -1104.23616147 3193.55599263 C-1104.23832679 3187.29087701 -1104.24050409 3181.0257614 -1104.24269541 3174.76064579 C-1104.26922247 3098.81421542 -1104.28476589 3022.86778398 -1104.29785829 2946.92135027 C-1104.30195609 2923.16922026 -1104.30633622 2899.41709031 -1104.3109326 2875.66496039 C-1104.3124615 2867.76116608 -1104.31398366 2859.85737177 -1104.31550425 2851.95357746 C-1104.31567174 2851.08304859 -1104.31583922 2850.21251972 -1104.31601177 2849.31561119 C-1104.33318245 2759.9975208 -1104.34892139 2670.67942997 -1104.37036404 2488.72869144 C-1104.37134804 2478.34007605 -1104.37235244 2467.95146066 -1104.37335972 2457.56284526 C-1104.3734505 2456.62613214 -1104.37354128 2455.68941902 -1104.37363481 2454.72432065 C-1104.37547463 2435.74594301 -1104.37733491 2416.76756538 -1104.37922413 2397.78918774 C-1104.37969764 2393.03182645 -1104.38016944 2388.27446515 -1104.38063704 2383.51710386 C-1104.3894704 2293.68718476 -1104.40261974 2203.85726987 -1104.43158884 2114.02735475 C-1104.4318935 2113.08199476 -1104.43219816 2112.13663476 -1104.43251206 2111.16262749 C-1104.44265468 2079.7248761 -1104.4533258 2048.28712489 -1104.46405215 2016.8493737 C-1104.47374283 1988.44263665 -1104.48330928 1960.03589957 -1104.49244661 1931.62916235 C-1104.49274698 1930.69591469 -1104.49304735 1929.76266704 -1104.49335682 1928.80113915 C-1104.51214556 1870.32832423 -1104.52488171 1811.85551043 -1104.53132982 1753.38269285 C-1104.5314302 1752.4792068 -1104.53153058 1751.57572074 -1104.531634 1750.64485632 C-1104.53603589 1710.96050114 -1104.53912826 1671.27614596 -1104.54075394 1631.59179057 C-1104.54141227 1615.62519648 -1104.54224039 1599.65860239 -1104.54315274 1583.69200831 C-1104.54330215 1581.04475665 -1104.54344526 1578.39750499 -1104.54358738 1575.75025332 C-1104.54579697 1535.28914967 -1104.55196116 1494.82805179 -1104.56987876 1454.36695174 C-1104.57026453 1453.49533072 -1104.57065031 1452.6237097 -1104.57104777 1451.72567593 C-1104.57727551 1437.70593828 -1104.58382654 1423.68620079 -1104.59042336 1409.66646331 C-1104.60916019 1369.83566496 -1104.62540007 1330.00487329 -1104.6238317 1290.1740698 C-1104.62380091 1289.36469034 -1104.62377012 1288.55531088 -1104.62373839 1287.72140477 C-1104.62301517 1270.05688764 -1104.62090963 1252.39237095 -1104.61745295 1234.72785416 C-1104.61609547 1227.68107936 -1104.61492271 1220.63430453 -1104.61380929 1213.5875297 C-1104.61368294 1212.81887823 -1104.61355658 1212.05022675 -1104.61342639 1211.25828281 C-1104.60951711 1186.94291713 -1104.62092457 1162.62759146 -1104.64133026 1138.3122349 C-1104.66194237 1113.6728227 -1104.66511017 1089.0334695 -1104.64746074 1064.39405399 C-1104.63796889 1050.39946997 -1104.64197424 1036.40505201 -1104.66648309 1022.4104853 C-1104.68141988 1013.09116975 -1104.67788381 1003.7719738 -1104.65995252 994.45266396 C-1104.65031789 989.18582274 -1104.64790956 983.91930364 -1104.66850573 978.65248646 C-1104.84024318 931.63353868 -1099.06364208 886.97685371 -1084.02997751 842.25995973 C-1083.60531198 840.99418093 -1083.60531198 840.99418093 -1083.17206735 839.70283083 C-1072.92146496 809.62419754 -1058.66570937 780.6744739 -1041.02997751 754.25995973 C-1040.57413278 753.57143923 -1040.11828805 752.88291872 -1039.64862985 752.17353395 C-1029.15844805 736.38352659 -1017.60927772 721.43780676 -1005.02997751 707.25995973 C-1004.18435251 706.3021863 -1003.33872751 705.34441286 -1002.46747751 704.35761598 C-991.57609519 692.25423533 -980.23418803 680.15291947 -967.38154001 670.11542848 C-965.1000013 668.31521107 -962.97712634 666.41821231 -960.84247751 664.44745973 C-948.02575733 652.98700624 -933.44146632 643.55911612 -919.02997751 634.25995973 C-918.382707 633.84149782 -917.73543649 633.42303591 -917.06855173 632.99189333 C-849.78377918 589.95724674 -772.4020257 573.8063981 -693.50427706 574.02782849 C-689.54766021 574.03663845 -685.59104784 574.03353073 -681.63442392 574.03202394 C-674.81352871 574.03098593 -667.9926724 574.03714739 -661.17178697 574.04849962 C-651.3104917 574.06490124 -641.44921483 574.06997744 -631.5879074 574.0724756 C-615.58038697 574.07683 -599.57288716 574.09007715 -583.5653779 574.10908083 C-568.03510549 574.12749853 -552.50483874 574.14162602 -536.97455759 574.15009645 C-536.01386455 574.1506219 -535.05317152 574.15114735 -534.06336658 574.15168872 C-529.24283466 574.15429919 -524.42230269 574.15682651 -519.60177071 574.15931252 C-479.74449188 574.17997461 -439.88723607 574.21513781 -400.02997751 574.25995973 C-400.03274289 572.76248579 -400.03274289 572.76248579 -400.03556413 571.23475984 C-400.08014239 546.84167189 -400.11291352 522.44858928 -400.13360185 498.05546907 C-400.1438748 486.25870896 -400.15785815 474.46197591 -400.18085641 462.66523317 C-400.2009131 452.37235816 -400.2137228 442.07950275 -400.2181545 431.78660873 C-400.22074128 426.34647236 -400.22673631 420.90639206 -400.24143762 415.46627382 C-400.35535793 371.61085796 -400.35535793 371.61085796 -398.02997751 352.25995973 C-397.94781457 351.54225184 -397.86565162 350.82454395 -397.78099889 350.08508734 C-397.32553 346.1112044 -396.80397748 342.15412338 -396.21747751 338.19745973 C-396.04643503 337.0317444 -395.87539255 335.86602907 -395.69916696 334.66498903 C-385.97473188 270.60761789 -359.92944371 208.37136385 -320.02997751 157.25995973 C-319.37513376 156.40402223 -318.72029001 155.54808473 -318.04560251 154.66620973 C-316.39362201 152.51408836 -314.71955598 150.3826634 -313.02997751 148.25995973 C-312.35837595 147.41433473 -311.68677438 146.56870973 -310.99482126 145.69745973 C-305.72797758 139.15802773 -300.16750832 132.94034133 -294.45038766 126.79804567 C-293.00896162 125.23720275 -291.5857242 123.66148863 -290.16669626 122.08027223 C-285.62507517 117.03246427 -281.06054177 112.1978318 -275.84638376 107.82636598 C-274.03065105 106.26054058 -272.38055047 104.61093853 -270.71747751 102.88495973 C-266.64052715 98.75303926 -262.16467355 95.16429828 -257.63251657 91.54609255 C-255.9406756 90.18828964 -254.26220927 88.81506568 -252.58466501 87.43964723 C-198.65717338 43.43661455 -133.43384931 14.92358117 -64.77997751 4.00995973 C-63.83678659 3.85873659 -62.89359567 3.70751345 -61.92182321 3.55170778 C-41.33430666 0.4901164 -20.77760945 -0.03725355 0 0 Z M-150.02997751 161.25995973 C-151.09989938 161.92382692 -152.16982126 162.58769411 -153.27216501 163.27167848 C-165.99425772 171.49449451 -177.9459407 180.95303252 -189.02997751 191.25995973 C-190.33884753 192.38918093 -191.6512534 193.51431913 -192.96747751 194.63495973 C-201.89283673 202.44464906 -209.67321884 210.97614238 -217.02997751 220.25995973 C-217.97451063 221.4049092 -218.92123791 222.5480511 -219.86982126 223.68964723 C-248.08436863 257.87256839 -266.4715639 299.44201953 -275.34247751 342.69745973 C-275.56314889 343.75658571 -275.56314889 343.75658571 -275.78827829 344.83710817 C-278.5827327 359.35519762 -279.32601735 373.8982222 -279.28297717 388.63971315 C-279.28521744 390.42905076 -279.28833216 392.21838744 -279.29222898 394.00772221 C-279.30037755 398.90040672 -279.29621141 403.79301284 -279.28993724 408.68569719 C-279.28530777 414.03761444 -279.29235792 419.38951903 -279.29787088 424.74143369 C-279.3059614 434.14936098 -279.30663775 443.55726616 -279.30245899 452.96519567 C-279.29623753 467.04939195 -279.30154023 481.13356799 -279.30905641 495.2177628 C-279.32152381 519.22302117 -279.32448342 543.2282723 -279.32222147 567.23353342 C-279.31995638 591.56110191 -279.32202514 615.88866431 -279.32936639 640.21623186 C-279.32983038 641.76823516 -279.33029432 643.32023846 -279.33075823 644.87224176 C-279.33263734 651.13010736 -279.33454994 657.38797295 -279.33650061 663.64583853 C-279.34199095 681.28522077 -279.3467499 698.92460317 -279.35100455 716.56398574 C-279.35119965 717.3722605 -279.35139475 718.18053526 -279.35159576 719.01330319 C-279.36260351 764.96996241 -279.36321489 810.92662197 -279.36403748 856.88328227 C-279.36416398 863.90783716 -279.36429702 870.93239205 -279.36443858 877.95694693 C-279.36447397 879.71763254 -279.36450872 881.47831815 -279.36454283 883.23900376 C-279.36531857 922.76333519 -279.36967641 962.28766591 -279.37480334 1001.81199699 C-279.37594646 1010.6346218 -279.37705441 1019.45724662 -279.3781646 1028.27987144 C-279.37827485 1029.15564276 -279.37838509 1030.03141408 -279.37849867 1030.93372393 C-279.37916768 1036.24985645 -279.37983522 1041.56598896 -279.3805018 1046.88212147 C-279.38083596 1049.54524818 -279.38117098 1052.20837489 -279.38150608 1054.8715016 C-279.38670975 1096.27789994 -279.39117038 1137.68429834 -279.39487047 1179.09069685 C-279.39495121 1179.99287273 -279.39503195 1180.89504861 -279.39511514 1181.82456315 C-279.4002411 1239.31138137 -279.40204017 1296.79819918 -279.40151447 1354.28501761 C-279.40148896 1357.11163804 -279.40146504 1359.93825846 -279.40144165 1362.76487889 C-279.40127697 1382.62273622 -279.40107155 1402.48059355 -279.40085589 1422.33845088 C-279.40079435 1428.03204702 -279.40073422 1433.72564316 -279.40067426 1439.41923929 C-279.40062407 1444.16843979 -279.40057249 1448.91764028 -279.40051804 1453.66684078 C-279.39949526 1543.3615378 -279.4023294 1633.05623122 -279.42121286 1722.75092653 C-279.42141158 1723.69515621 -279.42161029 1724.63938589 -279.42181503 1725.61222859 C-279.42803775 1755.11451601 -279.43477073 1784.61680331 -279.4415986 1814.11909059 C-279.44860158 1844.39129877 -279.45554257 1874.66350696 -279.46212739 1904.93571524 C-279.46243197 1906.33390841 -279.46243197 1906.33390841 -279.4627427 1907.7603479 C-279.47544346 1966.14839787 -279.48328522 2024.53644682 -279.48584337 2082.92449812 C-279.48588342 2083.82644831 -279.48592348 2084.72839849 -279.48596475 2085.6576805 C-279.48771549 2125.27132859 -279.4883549 2164.88497664 -279.48778298 2204.49862476 C-279.48755442 2220.43577291 -279.48744228 2236.37292106 -279.48737634 2252.31006921 C-279.48736353 2254.9524693 -279.48734538 2257.5948694 -279.48732604 2260.23726949 C-279.48705315 2300.63991579 -279.48973884 2341.0425588 -279.50141639 2381.44520358 C-279.50166774 2382.31603706 -279.50191908 2383.18687055 -279.50217804 2384.08409292 C-279.50623589 2398.09177579 -279.51052399 2412.09945859 -279.51483166 2426.10714139 C-279.52705468 2465.88655475 -279.53713428 2505.66596368 -279.53288931 2545.44537918 C-279.53280389 2546.25310225 -279.53271846 2547.06082532 -279.53263045 2547.89302486 C-279.5307234 2565.51800554 -279.52769139 2583.14298585 -279.52355702 2600.76796615 C-279.52192445 2607.79806939 -279.52043717 2614.82817265 -279.51899499 2621.85827593 C-279.51883369 2622.62512358 -279.51867239 2623.39197123 -279.5185062 2624.18205669 C-279.51346543 2648.47206299 -279.52067777 2672.76204472 -279.53503063 2697.05204673 C-279.54951075 2721.64817687 -279.55010766 2746.24426807 -279.5339531 2770.84039782 C-279.52519553 2784.82273549 -279.52732104 2798.80496803 -279.54568667 2812.78729697 C-279.55679835 2822.08320654 -279.55330009 2831.37903793 -279.5381211 2840.67494153 C-279.52992963 2845.93825117 -279.52773368 2851.20135449 -279.54362248 2856.46465122 C-279.71466476 2917.22322358 -267.38945168 2977.12453572 -231.02997751 3027.25995973 C-230.25782907 3028.32472536 -229.48568063 3029.38949098 -228.69013376 3030.48652223 C-226.50390629 3033.4388636 -224.28051621 3036.35643627 -222.02997751 3039.25995973 C-221.38544626 3040.09913942 -220.74091501 3040.93831911 -220.07685251 3041.80292848 C-206.7560132 3058.8330259 -191.19105049 3075.16045582 -173.75263376 3087.98603395 C-171.99435915 3089.28629995 -170.26151679 3090.61575794 -168.52997751 3091.95136598 C-153.81101633 3103.1811511 -137.77409103 3112.4083392 -121.02997751 3120.25995973 C-120.35354196 3120.58415895 -119.67710641 3120.90835817 -118.98017282 3121.24238161 C-76.08824449 3141.72033343 -30.83950679 3146.60740924 16.14521008 3146.51734826 C19.98842143 3146.51227356 23.83161762 3146.51903808 27.67482647 3146.52415193 C34.4103256 3146.53153754 41.14579304 3146.53162821 47.88129401 3146.52676244 C57.96457033 3146.5195144 68.04781966 3146.52391069 78.13109528 3146.53044379 C95.32240931 3146.54124358 112.51371236 3146.54261003 129.70502882 3146.53874544 C147.11458839 3146.53486311 164.52413979 3146.53533379 181.93369894 3146.54105524 C183.03531591 3146.54141407 184.13693287 3146.54177289 185.27193217 3146.54214259 C189.75900606 3146.54361758 194.24607993 3146.54512198 198.73315379 3146.54666406 C244.23104018 3146.56228175 289.72892096 3146.56497995 335.22680955 3146.56250799 C341.50877433 3146.56216953 347.79073911 3146.56184744 354.07270389 3146.56154231 C355.32051318 3146.56148127 356.56832247 3146.56142022 357.85394416 3146.56135733 C385.52791302 3146.56008452 413.2018811 3146.56268846 440.87584973 3146.56606838 C447.19793179 3146.56683912 453.52001385 3146.56758385 459.84209592 3146.56833339 C462.37946077 3146.56863508 464.91682562 3146.56893697 467.45419047 3146.56923903 C469.3407992 3146.56946355 469.3407992 3146.56946355 471.26552124 3146.56969261 C473.80961353 3146.56999614 476.35370581 3146.57030082 478.8977981 3146.57060665 C550.39185854 3146.57919634 621.88591857 3146.58400622 693.37997944 3146.57977858 C695.40364751 3146.57965899 697.42731558 3146.57954061 699.45098365 3146.57942249 C714.34619723 3146.5785511 729.24141082 3146.5776205 744.1366244 3146.57667185 C745.49498877 3146.57658547 746.85335314 3146.5764991 748.21171751 3146.57641273 C749.57063302 3146.5763263 750.92954854 3146.57623985 752.28846405 3146.57615341 C752.96132277 3146.57611062 753.63418148 3146.57606783 754.32742986 3146.57602374 C757.72724714 3146.57580735 761.12706442 3146.57558991 764.52688171 3146.57537051 C828.74633331 3146.57123158 892.96578164 3146.57015663 957.18523245 3146.58253054 C958.19958793 3146.58272596 958.19958793 3146.58272596 959.23443544 3146.58292533 C979.68423128 3146.58687738 1000.13402702 3146.59123692 1020.58382274 3146.59569649 C1042.94618869 3146.60057271 1065.30855465 3146.60540674 1087.67092066 3146.60997824 C1088.33857509 3146.61011501 1089.00622952 3146.61025178 1089.6941159 3146.61039269 C1131.51973458 3146.61894971 1173.34535252 3146.62384392 1215.17097216 3146.6246858 C1216.46301266 3146.62471217 1217.75505315 3146.62473853 1219.08624639 3146.6247657 C1247.44987413 3146.62530649 1275.8135018 3146.62493401 1304.17712952 3146.62372599 C1314.32599951 3146.62330037 1324.47486951 3146.62293524 1334.6237395 3146.62259654 C1337.14845666 3146.62251124 1339.67317382 3146.62242231 1342.19789099 3146.62232973 C1382.41206386 3146.62088149 1422.62622944 3146.62800362 1462.84040056 3146.63933369 C1504.46726586 3146.65098586 1546.09411814 3146.65154497 1587.72098351 3146.63949026 C1592.19323803 3146.63823846 1596.66549256 3146.63703497 1601.1377471 3146.63586954 C1602.23529675 3146.63557925 1603.33284639 3146.63528895 1604.46365512 3146.63498986 C1621.82484021 3146.63066869 1639.18600676 3146.63638793 1656.54718893 3146.64630973 C1673.62854341 3146.65585943 1690.70986935 3146.65465511 1707.79122217 3146.64210351 C1717.79778781 3146.63506839 1727.8042713 3146.63614916 1737.81083103 3146.64945189 C1744.46880301 3146.65747572 1751.12671322 3146.65448628 1757.78467959 3146.64280225 C1761.55090549 3146.63649313 1765.31696991 3146.63459653 1769.0831864 3146.64636946 C1786.5886601 3146.6974458 1803.64244478 3145.86140409 1820.97002249 3143.25995973 C1822.05274112 3143.09932311 1822.05274112 3143.09932311 1823.15733285 3142.9354413 C1826.77905118 3142.39144186 1830.37577986 3141.77573507 1833.97002249 3141.07245973 C1835.02850394 3140.86596804 1836.08698538 3140.65947634 1837.17754202 3140.44672731 C1897.81973166 3127.97107046 1956.0941471 3092.38225546 1993.97002249 3043.25995973 C1994.96131313 3042.01965906 1995.95357086 3040.78013096 1996.94658499 3039.54120973 C2009.24771188 3024.02478301 2019.7372271 3007.2765997 2027.97002249 2989.25995973 C2028.36286429 2988.40708376 2028.75570609 2987.55420778 2029.16045218 2986.67548708 C2039.5991407 2963.84436626 2046.77112691 2941.06066674 2051.15752249 2916.38495973 C2051.32469779 2915.44603884 2051.49187308 2914.50711794 2051.66411429 2913.53974489 C2051.82049368 2912.62499391 2051.97687308 2911.71024294 2052.13799124 2910.76777223 C2052.27487357 2909.97000368 2052.41175589 2909.17223513 2052.55278616 2908.35029177 C2053.97551579 2897.81260211 2054.11222481 2887.36219326 2054.09767299 2876.75025449 C2054.09891713 2874.97002877 2054.1005987 2873.18980332 2054.10267535 2871.40957838 C2054.10712088 2866.50957861 2054.10534872 2861.60959776 2054.10257357 2856.70959749 C2054.10065014 2851.36190471 2054.10453394 2846.01421559 2054.10767036 2840.66652382 C2054.11238488 2831.25517012 2054.11336837 2821.84382168 2054.11194202 2812.432467 C2054.10982238 2798.34310394 2054.11343211 2784.25374633 2054.11815679 2770.16438412 C2054.1260343 2746.15322549 2054.129127 2722.14206835 2054.12960272 2698.13090853 C2054.13009723 2673.79073025 2054.13274244 2649.45055364 2054.13801032 2625.11037592 C2054.13834386 2623.55868412 2054.13867732 2622.00699232 2054.13901072 2620.45530052 C2054.14035883 2614.19888589 2054.14172213 2607.94247127 2054.14310283 2601.68605665 C2054.15826862 2532.86691733 2054.16504553 2464.04777844 2054.16952479 2395.22863771 C2054.16958148 2394.35817556 2054.16963817 2393.48771341 2054.16969658 2392.59087361 C2054.1699831 2388.18787018 2054.17026813 2383.78486674 2054.1705507 2379.3818633 C2054.172926 2342.48975346 2054.17663571 2305.59764381 2054.18058779 2268.70553412 C2054.18248038 2251.03700988 2054.18430889 2233.36848564 2054.18612199 2215.6999614 C2054.18625728 2214.38185227 2054.18625728 2214.38185227 2054.18639529 2213.03711468 C2054.19073152 2170.74454046 2054.19465985 2128.45196621 2054.19812232 2086.15939192 C2054.19819619 2085.25722025 2054.19827006 2084.35504858 2054.19834617 2083.42553838 C2054.20304109 2025.93124756 2054.20586415 1968.4369568 2054.20750909 1910.94266582 C2054.20764467 1906.22892103 2054.2077837 1901.51517623 2054.20792264 1896.80143144 C2054.20814511 1889.24416912 2054.20836648 1881.6869068 2054.20858651 1874.12964449 C2054.20861379 1873.19317226 2054.20864106 1872.25670004 2054.20866915 1871.29184987 C2054.20872427 1869.39916526 2054.20877938 1867.50648065 2054.20883448 1865.61379604 C2054.2092211 1852.33717964 2054.20960904 1839.06056323 2054.21000362 1825.78394683 C2054.21014472 1821.03330318 2054.2102848 1816.28265952 2054.21042251 1811.53201586 C2054.21302663 1721.81138564 2054.21835614 1632.09075715 2054.23430472 1542.37012819 C2054.23447251 1541.42566907 2054.23464031 1540.48120995 2054.23481318 1539.50813085 C2054.24006388 1509.99905619 2054.24563824 1480.48998159 2054.25127249 1450.980907 C2054.25705351 1420.70229838 2054.26278409 1390.42368976 2054.26822882 1360.14508108 C2054.26839663 1359.21277407 2054.26856444 1358.28046706 2054.26873733 1357.31990833 C2054.27923128 1298.92621846 2054.28609233 1240.53252907 2054.28909522 1182.13883833 C2054.28914203 1181.23687748 2054.28918884 1180.33491664 2054.28923707 1179.40562364 C2054.29128778 1139.79248521 2054.29253182 1100.1793468 2054.29288313 1060.56620832 C2054.29302639 1044.62941706 2054.29326505 1028.6926258 2054.29354718 1012.75583454 C2054.29359271 1010.1134538 2054.29363437 1007.47107305 2054.29367529 1004.82869231 C2054.29432128 964.41790654 2054.29727683 924.00712275 2054.30713587 883.59633807 C2054.30734824 882.72508349 2054.30756061 881.85382891 2054.30777942 880.95617268 C2054.31120813 866.94127925 2054.31482112 852.92638586 2054.31845583 838.91149248 C2054.3287712 799.11749403 2054.33754992 759.32349803 2054.33561116 719.52949802 C2054.33557242 718.72172099 2054.33553368 717.91394395 2054.33549377 717.08168883 C2054.33461712 699.45680589 2054.33290488 681.83192313 2054.33037414 664.20704035 C2054.32937742 657.17727936 2054.32849075 650.14751836 2054.32763892 643.11775736 C2054.32754303 642.35093875 2054.32744714 641.58412014 2054.32734835 640.7940646 C2054.32436167 616.49153905 2054.33058434 592.18902763 2054.34215778 567.88650497 C2054.35383412 543.28481342 2054.35513033 518.68314341 2054.3438421 494.0814513 C2054.33774346 480.09061185 2054.33984634 466.09983184 2054.35409407 452.10899799 C2054.36273927 442.81376099 2054.3604752 433.51856767 2054.34939536 424.22333336 C2054.34342088 418.95632009 2054.34201374 413.68942322 2054.35408022 408.42241773 C2054.39743396 388.17851408 2054.4286844 368.27772618 2050.97002249 348.25995973 C2050.67739004 346.49417986 2050.3848282 344.72838828 2050.09234024 342.96258446 C2046.08178965 319.03233193 2037.47152267 296.03778989 2026.97002249 274.25995973 C2026.58878226 273.46702516 2026.20754202 272.67409059 2025.81474905 271.8571277 C2014.46958996 248.62146719 1999.17454526 227.33031518 1981.32256155 208.69794802 C1979.6529703 206.92287717 1978.08962693 205.07146231 1976.53252249 203.19745973 C1967.32684154 192.58598514 1956.187258 183.64072506 1944.97002249 175.25995973 C1944.39783987 174.83086306 1943.82565726 174.40176638 1943.23613577 173.95966677 C1921.89671462 158.0619485 1898.02408317 145.20888244 1872.97002249 136.25995973 C1872.12713675 135.95751345 1871.28425101 135.65506716 1870.41582327 135.34345583 C1841.84861088 125.27701658 1811.85633323 120.08004507 1781.58649825 120.1300079 C1780.30745808 120.12810866 1779.02841791 120.12620942 1777.71061895 120.12425263 C1774.1826235 120.11915621 1770.65465325 120.12018043 1767.12665574 120.12226624 C1763.26570848 120.12343574 1759.40476726 120.11878659 1755.54382237 120.11490951 C1748.75833581 120.10889392 1741.97285579 120.10657322 1735.18736668 120.10668265 C1725.0289447 120.10683357 1714.87053126 120.10127285 1704.71211173 120.09463575 C1687.39716429 120.08350063 1670.08221801 120.07716328 1652.76726752 120.073463 C1635.22043242 120.0697064 1617.67359999 120.06382973 1600.1267665 120.05538515 C1599.01836845 120.05485406 1597.9099704 120.05432296 1596.76798454 120.05377577 C1592.25359208 120.05160902 1587.73919964 120.04943239 1583.22480719 120.04724184 C1528.51475983 120.02074907 1473.80471104 120.00517662 1419.09465906 119.99207895 C1401.3515265 119.98782788 1383.60839404 119.98326022 1365.86526161 119.97849564 C1273.56622067 119.95376842 1181.26717934 119.93170416 1088.96813582 119.9195732 C1081.48380043 119.9185892 1073.99946503 119.91758481 1066.51512964 119.91657752 C1065.84029124 119.91648674 1065.16545285 119.91639596 1064.47016481 119.91630243 C1050.79764942 119.91446263 1037.12513403 119.91260234 1023.45261865 119.91071312 C1020.0253096 119.9102396 1016.59800054 119.9097678 1013.17069149 119.9093002 C948.45708986 119.90046711 883.74349408 119.88731837 819.02989798 119.85834841 C818.3488794 119.85804374 817.66786083 119.85773908 816.96620532 119.85742519 C794.3190211 119.84728254 771.67183712 119.83661144 749.02465316 119.82588509 C728.56073222 119.81619431 708.09681123 119.80662782 687.63289004 119.79749063 C686.96057775 119.79719026 686.28826547 119.79688989 685.59558009 119.79658042 C643.46771337 119.77778991 601.33984892 119.76506313 559.21197825 119.75860742 C557.91025346 119.75840687 556.60852868 119.75820631 555.26735769 119.75799968 C526.68837867 119.75364867 498.10939968 119.75070319 469.53042038 119.74907317 C458.03076313 119.74839684 446.53110589 119.74754132 435.03144865 119.746635 C433.14364184 119.74649385 433.14364184 119.74649385 431.21769752 119.74634986 C390.70965111 119.74324015 350.2016299 119.72474634 309.69359257 119.69828503 C268.87927186 119.67171155 228.06497922 119.66100571 187.25065042 119.67202101 C181.6037332 119.67354243 175.95681595 119.67488789 170.30989867 119.67612795 C169.20300537 119.67637768 168.09611208 119.67662741 166.95567656 119.6768847 C149.46832454 119.68037207 131.98102752 119.66710242 114.49368869 119.64675022 C97.27467314 119.62706036 80.05573226 119.62536971 62.83671316 119.6424765 C52.75781808 119.65195806 42.67915368 119.64799375 32.60028273 119.62345415 C25.88411657 119.60849094 19.16811611 119.6120824 12.45195779 119.62998472 C8.6590657 119.63959765 4.86662015 119.64209491 1.07376183 119.62143151 C-52.58006449 119.34806602 -104.25645344 132.84138003 -150.02997751 161.25995973 Z M-743.02997751 696.25995973 C-745.25373307 696.54798791 -747.47765646 696.83472804 -749.70185251 697.11933473 C-805.88766064 705.128455 -858.20917041 730.82564134 -899.02997751 770.25995973 C-899.73735055 770.94010134 -900.4447236 771.62024294 -901.1735322 772.32099489 C-910.39925736 781.23341585 -919.18382113 790.19401493 -926.77216501 800.55341677 C-928.06417046 802.30635118 -929.38742279 804.03185539 -930.71747751 805.75605348 C-941.95034955 820.47471357 -951.1777114 836.51446949 -959.02997751 853.25995973 C-959.35417673 853.93639528 -959.67837595 854.61283083 -960.01239938 855.30976442 C-976.18005209 889.1735906 -984.21047678 926.34709648 -984.15647734 963.78298102 C-984.15759561 965.56466106 -984.1591517 967.34634087 -984.16110324 969.12802019 C-984.1652037 974.03205937 -984.16308211 978.93607916 -984.15995738 983.84011833 C-984.15765366 989.19219232 -984.1611625 994.54426305 -984.16392419 999.89633638 C-984.16797935 1009.3153859 -984.1683032 1018.7344299 -984.16621825 1028.15347998 C-984.16311409 1042.2542744 -984.16575383 1056.35506375 -984.16951696 1070.4558578 C-984.17575791 1094.4862842 -984.17722938 1118.51670878 -984.17609949 1142.54713587 C-984.17496772 1166.90665959 -984.17599864 1191.26618179 -984.17967195 1215.62570528 C-984.17990394 1217.17862215 -984.18013592 1218.73153903 -984.18036787 1220.2844559 C-984.1813074 1226.54579634 -984.1822637 1232.80713678 -984.18323906 1239.06847722 C-984.18598452 1256.71903496 -984.1883639 1274.36959275 -984.19049103 1292.02015058 C-984.19058858 1292.8290087 -984.19068613 1293.63786683 -984.19078663 1294.4712358 C-984.19629303 1340.4822929 -984.19659627 1386.49335009 -984.19700749 1432.50440746 C-984.19707074 1439.53827384 -984.19713726 1446.57214022 -984.19720805 1453.60600659 C-984.19722574 1455.368978 -984.19724311 1457.1319494 -984.19726017 1458.8949208 C-984.19764788 1498.45429273 -984.19982622 1538.01366447 -984.20239042 1577.5730363 C-984.20296198 1586.40087507 -984.20351595 1595.22871384 -984.20407106 1604.05655261 C-984.20412618 1604.93282966 -984.2041813 1605.80910671 -984.20423809 1606.71193762 C-984.20457259 1612.03108883 -984.20490636 1617.35024005 -984.20523965 1622.66939126 C-984.20540673 1625.3339918 -984.20557424 1627.99859234 -984.20574179 1630.66319288 C-984.20834372 1672.09376359 -984.21057401 1713.52433432 -984.21242399 1754.95490507 C-984.21246436 1755.85763591 -984.21250473 1756.76036674 -984.21254632 1757.69045306 C-984.21510961 1815.21949914 -984.2160088 1872.74854513 -984.21574599 1930.27759127 C-984.21573323 1933.10665721 -984.21572127 1935.93572315 -984.21570958 1938.76478909 C-984.21562724 1958.64028939 -984.21552453 1978.51578969 -984.2154167 1998.39128999 C-984.21538593 2004.09006644 -984.21535586 2009.7888429 -984.21532588 2015.48761936 C-984.21530079 2020.24114384 -984.215275 2024.99466833 -984.21524777 2029.74819282 C-984.21473634 2119.53153451 -984.21615429 2209.31487531 -984.22559518 2299.09821657 C-984.22569454 2300.04346161 -984.2257939 2300.98870664 -984.22589627 2301.96259546 C-984.22900762 2331.49653136 -984.23237411 2361.03046723 -984.23578805 2390.56440309 C-984.23928947 2420.86842715 -984.24275992 2451.1724512 -984.24605245 2481.47647528 C-984.24615398 2482.40955041 -984.2462555 2483.34262554 -984.24636011 2484.30397568 C-984.2527091 2542.73847124 -984.2566311 2601.17296655 -984.25791044 2659.60746244 C-984.25793047 2660.50994203 -984.25795049 2661.41242162 -984.25797113 2662.34224907 C-984.25884644 2701.97658375 -984.25916623 2741.61091842 -984.25888024 2781.24525311 C-984.25876596 2797.1901038 -984.25870989 2813.13495448 -984.25867692 2829.07980517 C-984.25867052 2831.72354114 -984.25866144 2834.36727711 -984.25865177 2837.01101308 C-984.25851527 2877.4506811 -984.25986145 2917.8903483 -984.26569695 2958.33001594 C-984.26582262 2959.20213721 -984.26594829 2960.07425848 -984.26607777 2960.97280767 C-984.2681068 2975.00197457 -984.27025082 2989.03114146 -984.27240458 3003.06030834 C-984.27851368 3042.88637472 -984.28355734 3082.71243999 -984.28143341 3122.5385069 C-984.2813907 3123.34662833 -984.28134798 3124.15474976 -984.28130398 3124.98735972 C-984.28035061 3142.6180683 -984.27883478 3160.24877678 -984.27676726 3177.87948525 C-984.27595094 3184.91112575 -984.27520731 3191.94276625 -984.27448625 3198.97440676 C-984.2744056 3199.74143808 -984.27432495 3200.5084694 -984.27424185 3201.29874409 C-984.27171843 3225.6240248 -984.27533487 3249.94929939 -984.28250407 3274.27457903 C-984.28973219 3298.89048217 -984.29005681 3323.50637557 -984.2819653 3348.12227861 C-984.27757555 3362.12744185 -984.27867541 3376.13257888 -984.28783209 3390.13773996 C-984.29336557 3399.43482227 -984.29166734 3408.73188498 -984.2840493 3418.02896577 C-984.27993203 3423.30192043 -984.27891362 3428.57482341 -984.28679999 3433.84777495 C-984.2939076 3438.63922704 -984.2916858 3443.43058401 -984.2822663 3448.2220313 C-984.28048767 3449.93339299 -984.28198709 3451.64476241 -984.28735243 3453.35611661 C-984.3301021 3467.98880152 -983.32046468 3482.52419055 -980.34247751 3496.88495973 C-980.17514108 3497.69868044 -980.00780466 3498.51240114 -979.83539743 3499.35078005 C-969.40676574 3547.95966374 -947.20350424 3593.3583452 -913.27607126 3629.82636598 C-911.39541838 3631.8640125 -909.61353155 3633.94088579 -907.84247751 3636.07245973 C-898.21824032 3647.0974075 -886.74318006 3656.55073301 -875.02997751 3665.25995973 C-874.44861032 3665.6929236 -873.86724313 3666.12588747 -873.26825876 3666.57197145 C-865.13075852 3672.59201509 -856.78341234 3678.1660254 -848.02997751 3683.25995973 C-847.32695505 3683.67358766 -846.62393259 3684.08721559 -845.89960641 3684.5133777 C-801.23893002 3710.60436411 -752.37306704 3720.97024666 -701.11585301 3720.77473679 C-697.23493658 3720.76455094 -693.35407872 3720.77813058 -689.47317214 3720.78834412 C-682.6773605 3720.80308885 -675.8816746 3720.80331218 -669.08585573 3720.79356515 C-658.91217556 3720.77904597 -648.73860209 3720.78787465 -638.56492461 3720.80092785 C-621.21759636 3720.82250901 -603.87031163 3720.82526576 -586.52297372 3720.81753115 C-568.95865675 3720.8097625 -551.39437217 3720.81071409 -533.83005685 3720.82215074 C-532.16203531 3720.82322722 -532.16203531 3720.82322722 -530.46031636 3720.82432545 C-525.9307649 3720.82727548 -521.40121348 3720.83028429 -516.87166211 3720.83336838 C-470.95721258 3720.86459341 -425.04278532 3720.87000119 -379.12832707 3720.86505625 C-372.78994404 3720.86437932 -366.451561 3720.86373513 -360.11317796 3720.86312488 C-358.85411874 3720.8630028 -357.59505951 3720.86288071 -356.29784697 3720.86275492 C-328.36387627 3720.86020838 -300.42990861 3720.86541891 -272.4959388 3720.87217702 C-266.11274604 3720.87371851 -259.72955326 3720.87520799 -253.34636048 3720.87670705 C-250.78441376 3720.87731044 -248.22246704 3720.8779142 -245.66052032 3720.87851833 C-244.39058465 3720.87881769 -243.12064899 3720.87911705 -241.81223043 3720.87942548 C-239.24343939 3720.88003255 -236.67464835 3720.88064191 -234.10585731 3720.88125357 C-161.92139723 3720.89843191 -89.73693976 3720.90805366 -17.55247817 3720.89959742 C-15.50950717 3720.89935824 -13.46653617 3720.89912148 -11.42356517 3720.89888524 C3.61334697 3720.89714251 18.65025909 3720.89528131 33.68717121 3720.89338397 C35.05842859 3720.8932112 36.42968597 3720.89303846 37.80094334 3720.89286573 C39.17275467 3720.89269286 40.54456599 3720.89251997 41.91637732 3720.89234708 C42.93524214 3720.89221871 42.93524214 3720.89221871 43.97469008 3720.89208774 C47.40677367 3720.89165496 50.83885726 3720.89122008 54.27094085 3720.89078128 C119.08665574 3720.88250514 183.90235761 3720.88034669 248.71806937 3720.90510134 C249.40039742 3720.9053619 250.08272547 3720.90562247 250.78573013 3720.90589093 C271.41943096 3720.91379492 292.05313143 3720.92251402 312.68683184 3720.93143324 C335.2507492 3720.94118597 357.81466659 3720.95085422 380.3785842 3720.95999674 C381.38914456 3720.96040705 381.38914456 3720.96040705 382.42012028 3720.96082565 C424.6401061 3720.9779458 466.86008689 3720.98772869 509.08007651 3720.98941187 C510.38475531 3720.9894646 511.68943411 3720.98951733 513.03364863 3720.98957166 C541.67804629 3720.99065337 570.32244366 3720.98990801 598.96684122 3720.98749224 C609.2168874 3720.98664103 619.46693359 3720.98591077 629.71697978 3720.98523335 C632.26679252 3720.98506275 634.81660525 3720.98488488 637.36641798 3720.98469972 C677.94447577 3720.98180579 718.52250459 3720.99603115 759.10055542 3721.01870764 C801.12063553 3721.04203792 843.14066405 3721.043102 885.16074442 3721.01902079 C889.68012735 3721.01651729 894.19951032 3721.0141103 898.71889334 3721.01177935 C899.82797729 3721.01119876 900.93706124 3721.01061817 902.07975379 3721.01001999 C919.58761624 3721.00139467 937.09540496 3721.01278622 954.60325583 3721.03265973 C971.85030258 3721.05181067 989.0972364 3721.04928198 1006.34427672 3721.02424728 C1015.55673928 3721.01145136 1024.76895846 3721.00784996 1033.98140501 3721.03197395 C1078.65740398 3721.14262121 1120.76370331 3720.27876875 1163.59502249 3705.88495973 C1164.47053763 3705.59097292 1165.34605277 3705.2969861 1166.24809866 3704.99409059 C1174.37886612 3702.20874886 1182.20568313 3698.93581128 1189.97002249 3695.25995973 C1190.60150198 3694.96540895 1191.23298148 3694.67085817 1191.88359671 3694.36738161 C1220.67452186 3680.85133766 1246.04380153 3662.17286707 1268.97002249 3640.25995973 C1269.71767874 3639.55355348 1270.46533499 3638.84714723 1271.23564749 3638.11933473 C1275.74668369 3633.75037842 1279.71746981 3629.04509376 1283.63799124 3624.14277223 C1285.14806832 3622.27604379 1286.69084557 3620.43511295 1288.27080374 3618.62714723 C1317.46384158 3585.08621014 1336.3992018 3541.15463545 1345.28252249 3497.88495973 C1345.42979788 3497.17460573 1345.57707327 3496.46425173 1345.72881155 3495.73237184 C1348.66167409 3480.3760547 1349.25941854 3465.07458239 1349.19707327 3449.4899402 C1349.19650754 3447.47745857 1349.19682888 3445.46497653 1349.19795828 3443.45249514 C1349.19852646 3438.04873752 1349.18685991 3432.64507072 1349.17281037 3427.241334 C1349.16021271 3421.57193908 1349.15912545 3415.90254154 1349.15675955 3410.23313478 C1349.15057112 3399.52392589 1349.13419639 3388.81475838 1349.11406057 3378.10556761 C1349.09161899 3365.90224428 1349.08068747 3353.69891886 1349.0706697 3341.49558 C1349.04982751 3316.41701707 1349.0147034 3291.33849073 1348.97002249 3266.25995973 C1347.78639523 3266.25940357 1346.60276796 3266.25884741 1345.3832732 3266.25827439 C1304.85286327 3266.23921481 1264.32245355 3266.21971419 1223.79204398 3266.19990114 C1222.97547363 3266.199502 1222.15890329 3266.19910287 1221.31758839 3266.19869164 C1133.78970792 3266.15589613 1046.26182954 3266.11019584 958.73395377 3266.05863527 C956.78885182 3266.0574902 954.84374988 3266.05634512 952.89864793 3266.05520005 C912.06689632 3266.03115376 871.23514496 3266.00669965 830.40339387 3265.98177468 C809.8910471 3265.96925374 789.37870028 3265.95681113 768.86635341 3265.94444261 C765.77221966 3265.94257645 762.67808592 3265.94070806 759.58395217 3265.93883958 C711.96097524 3265.91010073 664.33799809 3265.8830378 616.71501761 3265.86085085 C615.6917448 3265.86037409 614.668472 3265.85989732 613.61419093 3265.85940611 C597.1169003 3265.85172993 580.61960961 3265.84419491 564.12231892 3265.83667863 C516.58208296 3265.81501682 469.04184854 3265.79230437 421.50161677 3265.76269678 C420.0339364 3265.76178348 420.0339364 3265.76178348 418.53660591 3265.76085174 C397.05272128 3265.74746421 375.56883704 3265.73354032 354.08495308 3265.71910918 C345.43943022 3265.71331126 336.79390731 3265.70759049 328.14838438 3265.70189623 C327.2021932 3265.70127117 326.25600201 3265.70064611 325.28113836 3265.70000211 C294.83826871 3265.67992976 264.39540022 3265.66612731 233.95252587 3265.65564158 C203.26434269 3265.64504247 172.57616958 3265.62823671 141.88799482 3265.60290941 C137.63864218 3265.59940392 133.38928948 3265.59596894 129.13993674 3265.59257654 C128.30700722 3265.59190903 127.47407771 3265.59124153 126.61590791 3265.59055379 C113.47394483 3265.58020403 100.33198873 3265.5764803 87.19002195 3265.57558187 C74.23895285 3265.5745583 61.28790414 3265.5663782 48.3368442 3265.55080381 C41.42040523 3265.54267827 34.50399998 3265.53758018 27.58755647 3265.54168092 C-41.60556238 3265.57527424 -41.60556238 3265.57527424 -69.21747751 3260.57245973 C-69.95792306 3260.44301973 -70.69836862 3260.31357973 -71.46125192 3260.1802173 C-104.89477311 3254.32930689 -137.18762584 3244.4598695 -168.02997751 3230.25995973 C-168.88027536 3229.87517458 -169.73057321 3229.49038942 -170.60663766 3229.09394411 C-204.51113804 3213.71198775 -236.26370904 3193.08492352 -264.02997751 3168.25995973 C-265.3931611 3167.0630652 -265.3931611 3167.0630652 -266.78388376 3165.84199098 C-273.8750174 3159.49729246 -280.60548523 3152.78807267 -287.34247751 3146.07245973 C-287.8187861 3145.59882997 -288.2950947 3145.12520021 -288.78583688 3144.63721804 C-294.42383854 3139.02327509 -299.90517256 3133.34761166 -305.02997751 3127.25995973 C-305.80281076 3126.34718264 -305.80281076 3126.34718264 -306.5912568 3125.41596559 C-314.44976927 3116.05408553 -321.73780115 3106.37347931 -328.64081735 3096.28876833 C-329.9453364 3094.38357442 -331.26233754 3092.48757513 -332.58075876 3090.59199098 C-342.67530944 3075.92319077 -351.3688996 3060.29449429 -359.06464548 3044.24677614 C-360.04930144 3042.22018783 -361.06991505 3040.21487257 -362.09638376 3038.20917848 C-380.57490398 3001.4945615 -391.03370901 2960.52884403 -396.21747751 2919.94745973 C-396.30260599 2919.28462984 -396.38773447 2918.62179994 -396.4754426 2917.9388843 C-398.4083233 2902.69770677 -399.18170317 2887.55981476 -399.16058803 2872.20479158 C-399.16216061 2870.64517199 -399.16416844 2869.08555278 -399.16656535 2867.52593423 C-399.17187105 2863.26287155 -399.17105281 2858.99982936 -399.16918405 2854.73676461 C-399.16825246 2850.07304474 -399.17313622 2845.40933018 -399.17725549 2840.74561254 C-399.18370131 2832.54805509 -399.18646407 2824.35050282 -399.18681552 2816.15294293 C-399.18736151 2803.88111366 -399.19366327 2791.60929189 -399.20108064 2779.33746508 C-399.21355624 2758.42198359 -399.22133307 2737.5065027 -399.22655839 2716.59101824 C-399.23187282 2695.39583414 -399.23934585 2674.20065214 -399.24948663 2653.00546984 C-399.24980563 2652.33671101 -399.25012463 2651.66795218 -399.2504533 2650.97892793 C-399.25337754 2644.8500999 -399.25632597 2638.72127188 -399.2593032 2632.59244388 C-399.26676725 2617.2248417 -399.27390324 2601.85723937 -399.28082139 2586.48963694 C-399.28113861 2585.78548549 -399.28145584 2585.08133404 -399.28178268 2584.35584467 C-399.29738711 2549.65337204 -399.30926574 2514.95089824 -399.32090349 2480.24842409 C-399.32500225 2468.03402538 -399.32911874 2455.81962667 -399.33330054 2443.60522798 C-399.33356049 2442.84592614 -399.33382043 2442.0866243 -399.33408826 2441.30431331 C-399.34615497 2406.12104936 -399.36077108 2370.9377866 -399.37603884 2335.75452391 C-399.37703742 2333.453067 -399.37803481 2331.15161009 -399.37903189 2328.85015318 C-399.38504549 2314.97221016 -399.39108562 2301.09426715 -399.3971564 2287.21632415 C-399.41224668 2252.71690259 -399.42701868 2218.21748089 -399.44157476 2183.7180591 C-399.44190628 2182.93269162 -399.4422378 2182.14732415 -399.44257937 2181.33815766 C-399.46404582 2130.47864691 -399.48420204 2079.61913575 -399.50326032 2028.75962404 C-399.5037167 2027.54176474 -399.5037167 2027.54176474 -399.5041823 2026.29930222 C-399.51344102 2001.58467908 -399.52260271 1976.87005589 -399.53174543 1952.1554327 C-399.54186337 1924.80571286 -399.55199787 1897.45599302 -399.56220407 1870.10627321 C-399.56251092 1869.28384788 -399.56281777 1868.46142254 -399.56313392 1867.61407523 C-399.59228802 1789.48987991 -399.62411394 1711.36568574 -399.65662996 1633.24149175 C-399.65800717 1629.93207669 -399.65938361 1626.62266163 -399.66076002 1623.31324657 C-399.67342618 1592.85910286 -399.68612369 1562.40495916 -399.69886057 1531.95081548 C-399.69919925 1531.14100636 -399.69953794 1530.33119725 -399.69988688 1529.49684847 C-399.70091234 1527.04496416 -399.70193781 1524.59307986 -399.70296327 1522.14119556 C-399.730666 1455.90379927 -399.75809532 1389.66640288 -399.78534751 1323.42900641 C-399.7863091 1321.09199358 -399.7872709 1318.75498076 -399.78823277 1316.41796793 C-399.81947075 1240.51785573 -399.85021643 1164.61774335 -399.95404977 895.40839723 C-399.95454951 894.09430682 -399.95504926 892.7802164 -399.95556414 891.42630506 C-399.9805555 825.70419002 -400.00537457 759.98207492 -400.02997751 694.25995973 C-441.1266591 694.2141196 -482.22333734 694.17890875 -523.32003942 694.15782908 C-528.1787558 694.15532785 -533.03747214 694.15273919 -537.89618845 694.15009645 C-539.34703077 694.14930952 -539.34703077 694.14930952 -540.82718303 694.14850669 C-556.46079147 694.13981888 -572.0943851 694.12405789 -587.72798478 694.10565414 C-603.78554699 694.08690984 -619.84310147 694.07583345 -635.90067417 694.07178275 C-645.79830082 694.06904707 -655.69588562 694.06042623 -665.59349938 694.0441268 C-672.39304913 694.03350392 -679.19257743 694.03037104 -685.99213486 694.03295698 C-689.90720858 694.03423007 -693.8222095 694.03236534 -697.73727006 694.02154879 C-712.94819312 693.98159715 -727.94929054 694.0274791 -743.02997751 696.25995973 Z " fill="#000000" transform="translate(2025.0299775078893,639.7400402650237)"/>
</svg>
